<?xml version="1.0" standalone="no"?>
<!DOCTYPE svg PUBLIC "-//W3C//DTD SVG 20010904//EN"
 "http://www.w3.org/TR/2001/REC-SVG-20010904/DTD/svg10.dtd">
<svg version="1.0" xmlns="http://www.w3.org/2000/svg"
 width="300.000000pt" height="252.000000pt" viewBox="0 0 300.000000 252.000000"
 preserveAspectRatio="xMidYMid meet">
<metadata>
Created by potrace 1.10, written by Peter Selinger 2001-2011
</metadata>
<g transform="translate(0.000000,252.000000) scale(0.100000,-0.100000)"
fill="#DDDDDD" stroke="none">
<path d="M863 2123 c5 -24 -8 -32 -16 -10 -3 10 -9 10 -26 0 -11 -7 -32 -13
-46 -13 -14 0 -25 -5 -25 -11 0 -5 4 -7 10 -4 5 3 15 -3 22 -15 16 -26 28 -26
28 0 0 22 20 26 38 8 8 -8 14 -4 23 16 10 21 10 29 -1 39 -10 10 -12 8 -7 -10z"/>
<path d="M950 2128 c0 -9 -8 -22 -17 -28 -17 -11 -17 -11 0 -6 9 3 17 1 17 -4
0 -6 7 -10 15 -10 8 0 15 3 15 8 0 4 10 12 22 17 29 13 35 35 9 35 -12 0 -21
-6 -21 -15 0 -20 -10 -19 -26 3 -12 16 -13 16 -14 0z"/>
<path d="M1419 2110 c-1 -16 -2 -36 -3 -42 -1 -8 9 -12 27 -10 15 2 27 -1 27
-7 0 -6 -12 -11 -26 -11 -21 0 -25 -4 -21 -20 5 -21 -7 -27 -19 -9 -3 6 -10 7
-15 2 -10 -10 0 -53 13 -53 5 0 6 5 3 10 -3 6 1 10 10 10 10 0 14 -5 10 -12
-4 -7 0 -5 8 5 8 10 24 19 36 20 25 2 38 27 14 27 -13 0 -14 3 -5 12 16 16 52
-4 75 -40 l17 -27 -6 28 c-5 21 -3 27 11 27 9 0 13 -4 10 -10 -3 -5 -2 -10 4
-10 5 0 13 5 16 10 4 6 11 8 16 5 5 -4 9 1 9 9 0 17 -15 21 -24 7 -10 -16 -47
1 -57 26 -7 20 -12 23 -23 14 -7 -6 -24 -9 -37 -7 -13 3 -28 5 -33 5 -5 1 1
12 14 26 25 27 22 42 -7 31 -13 -6 -14 -9 -4 -15 10 -7 9 -9 -3 -14 -19 -7
-28 6 -20 27 3 9 1 16 -5 16 -6 0 -12 -13 -12 -30z"/>
<path d="M997 2076 c-16 -14 -35 -22 -43 -19 -8 3 -14 0 -14 -6 0 -6 3 -11 8
-12 4 0 17 -2 30 -5 17 -3 22 1 22 17 0 16 5 20 18 17 16 -4 42 12 42 27 0 14
-38 2 -63 -19z"/>
<path d="M894 2071 c4 -5 -2 -7 -13 -4 -10 3 -22 0 -25 -6 -4 -6 -1 -11 8 -11
8 0 17 -13 21 -30 9 -43 24 -47 19 -5 -3 26 -1 35 11 35 20 0 19 16 -1 24 -22
8 -26 8 -20 -3z"/>
<path d="M710 2055 c-7 -8 -17 -12 -22 -9 -10 6 -28 -12 -28 -28 0 -16 36 -7
50 12 17 24 30 26 30 5 0 -9 7 -18 15 -21 11 -5 13 -10 5 -19 -8 -9 -8 -15 0
-20 6 -3 8 -11 5 -16 -4 -5 -1 -9 4 -9 6 0 11 -4 11 -10 0 -18 -18 -11 -25 10
-5 16 -10 18 -26 10 -14 -8 -19 -7 -19 1 0 8 -4 8 -15 -1 -13 -11 -14 -10 -9
4 4 11 1 16 -10 16 -9 0 -16 -6 -16 -12 -1 -8 -6 -6 -14 5 -13 16 -14 16 -18
-8 -3 -15 -1 -25 6 -24 26 3 35 -2 30 -16 -4 -8 -2 -15 4 -15 5 0 12 6 15 14
8 20 45 16 42 -4 -2 -14 12 -30 28 -30 4 0 7 7 7 15 0 8 7 15 15 15 19 0 19
34 0 54 -13 13 -13 15 7 22 12 3 28 12 35 19 7 7 18 15 24 17 9 3 9 9 1 24 -9
15 -11 16 -12 3 0 -9 -11 -24 -24 -32 -23 -15 -24 -15 -29 11 -6 32 -47 42
-67 17z"/>
<path d="M1137 2042 c-15 -9 -30 -27 -34 -40 -5 -20 -17 -22 -18 -4 -1 4 -4
17 -9 30 -8 23 -21 29 -31 12 -4 -6 -11 -7 -17 -4 -6 4 -22 -6 -35 -22 -22
-25 -24 -26 -18 -6 8 26 -1 29 -13 5 -7 -13 -4 -23 11 -38 11 -11 17 -15 14
-9 -3 5 5 23 18 40 23 28 24 28 25 7 0 -13 -6 -23 -12 -23 -9 0 -8 -4 2 -10
22 -14 29 -12 23 9 -7 27 14 35 28 10 8 -16 8 -23 -1 -29 -9 -6 -9 -9 1 -13 8
-3 2 -6 -13 -6 -16 -1 -28 4 -28 9 0 6 -7 10 -16 10 -14 0 -14 -3 -4 -15 10
-12 10 -15 0 -15 -32 0 3 -13 40 -14 30 -2 40 1 40 13 0 14 2 14 11 1 9 -12
10 -11 6 8 -3 12 -1 22 5 22 6 0 8 6 5 14 -8 19 34 46 70 46 l28 0 -25 -20
c-14 -11 -20 -20 -15 -20 6 0 2 -5 -8 -11 -9 -5 -22 -7 -27 -4 -6 3 -10 -1
-10 -9 0 -9 5 -16 10 -16 6 0 10 -4 10 -10 0 -5 -7 -10 -16 -10 -8 0 -12 -5
-9 -11 4 -6 13 -8 21 -5 8 3 14 1 14 -5 0 -6 -11 -8 -29 -4 -26 5 -28 3 -28
-19 0 -14 3 -24 7 -21 4 3 7 -1 6 -8 0 -6 3 -13 9 -14 5 -2 10 7 10 20 0 17 6
22 28 23 17 1 27 -4 27 -14 0 -10 6 -12 23 -7 12 4 32 7 45 7 33 0 21 22 -14
25 -50 4 -74 13 -74 28 0 8 4 15 10 15 5 0 7 6 4 14 -3 8 -1 17 5 21 6 3 11
-1 11 -9 0 -13 5 -14 26 -5 35 13 42 4 16 -20 -26 -22 -28 -31 -7 -31 9 0 20
11 25 25 6 15 17 25 30 25 21 0 29 20 8 20 -8 0 -5 7 6 15 17 13 17 15 3 15
-9 0 -21 -9 -27 -20 -13 -24 -30 -18 -30 11 0 11 -7 22 -15 25 -8 4 -15 12
-15 20 0 20 -49 17 -83 -4z"/>
<path d="M1651 2028 c4 -32 -10 -55 -22 -37 -7 11 -9 11 -9 1 0 -7 7 -15 15
-18 8 -4 12 -11 8 -16 -3 -6 -6 -24 -5 -39 0 -16 -4 -29 -9 -29 -5 0 -9 -4 -9
-10 0 -5 6 -7 13 -5 7 3 18 -8 25 -25 8 -16 21 -30 30 -30 15 -1 14 -3 -2 -15
-19 -14 -12 -21 16 -16 4 0 15 -10 24 -24 14 -22 14 -26 1 -40 -9 -8 -22 -15
-30 -15 -7 0 -14 -7 -14 -15 0 -11 8 -14 26 -11 14 2 30 5 34 5 5 1 6 10 2 20
-3 11 1 25 10 34 19 19 19 31 1 24 -8 -3 -18 4 -24 18 -9 20 -8 23 14 28 15 2
24 0 24 -8 0 -16 29 -40 49 -40 9 0 17 -6 17 -12 3 -26 5 -28 14 -13 11 18 -5
40 -31 40 -11 0 -19 5 -19 11 0 5 -4 7 -10 4 -5 -3 -10 -2 -10 4 0 5 5 13 11
17 20 12 -11 22 -52 17 -25 -4 -39 -2 -39 6 0 6 5 11 10 11 6 0 10 4 10 10 0
5 -7 7 -15 4 -8 -4 -15 -14 -15 -23 0 -13 -2 -14 -9 -1 -6 8 -8 18 -5 22 3 4
0 16 -5 26 -15 29 -1 35 25 11 12 -12 29 -19 36 -16 8 4 5 8 -9 12 -26 8 -30
22 -8 27 12 2 11 6 -6 16 -19 12 -21 12 -16 -1 4 -11 -1 -14 -19 -13 -28 1
-30 11 -8 33 8 9 13 22 10 30 -3 8 -6 26 -6 39 0 13 -5 24 -11 24 -6 0 -9 -10
-8 -22z"/>
<path d="M1705 2007 c8 -13 12 -27 8 -32 -5 -4 4 -5 18 -1 19 4 29 1 33 -10 9
-23 8 -24 -11 -18 -12 4 -14 3 -6 -3 16 -11 13 -71 -4 -77 -7 -3 -13 -11 -13
-17 0 -8 4 -8 13 -1 10 8 32 9 70 3 5 0 5 -5 2 -11 -3 -5 -1 -10 6 -10 7 0 10
-3 6 -6 -7 -7 17 -34 29 -34 5 0 3 5 -4 12 -18 18 -15 28 8 28 13 0 18 -5 14
-15 -5 -11 -2 -13 12 -8 13 5 16 3 11 -10 -3 -9 0 -23 9 -31 8 -8 10 -17 5
-20 -4 -3 -6 -23 -4 -45 5 -42 3 -45 -39 -55 -18 -4 -28 -2 -28 4 0 6 4 9 9 6
5 -3 11 1 14 8 3 8 1 17 -6 20 -9 5 -9 7 1 12 16 8 15 24 -2 24 -17 0 -28 -34
-26 -81 1 -22 -5 -41 -15 -49 -15 -12 -16 -11 -10 13 6 22 4 27 -12 27 -11 0
-23 -3 -27 -7 -4 -5 -13 -8 -19 -8 -7 0 -12 -6 -11 -12 1 -7 2 -22 3 -33 0
-11 6 -20 12 -20 6 0 8 7 5 16 -5 14 -4 15 9 4 9 -8 15 -8 15 -2 0 6 -4 14
-10 17 -15 9 -12 25 5 25 10 0 15 -10 15 -30 0 -16 4 -30 9 -30 12 0 41 46 41
65 0 8 4 15 8 15 4 0 8 -10 7 -22 0 -29 -44 -88 -64 -88 -14 0 -14 -2 -1 -10
11 -7 19 -2 33 21 18 27 21 28 32 13 8 -12 18 -15 31 -9 18 8 18 9 -2 12 -17
3 -20 10 -19 39 2 33 25 75 25 46 0 -16 28 -15 46 2 7 8 19 16 26 19 7 2 10 8
6 12 -5 5 -16 1 -26 -8 -27 -24 -35 -21 -17 7 18 27 56 41 66 25 5 -8 9 -8 13
0 4 6 12 11 17 11 6 0 7 -5 4 -10 -4 -6 -1 -18 6 -26 6 -8 9 -18 5 -21 -4 -4
-11 -1 -16 6 -5 9 -14 11 -26 6 -18 -8 -18 -8 -1 -12 9 -3 15 -9 12 -14 -4 -5
0 -9 7 -9 23 0 40 17 38 36 -4 33 0 45 10 39 6 -3 10 -1 10 4 0 13 -1 13 -62
15 -27 1 -48 -1 -48 -5 0 -4 -9 -9 -20 -12 -16 -4 -20 0 -20 19 0 14 6 24 14
24 9 0 14 9 13 20 -1 12 -8 20 -19 20 -15 0 -16 4 -8 26 12 32 12 34 -1 34 -5
0 -7 -4 -4 -10 3 -5 -1 -10 -9 -10 -8 0 -18 9 -21 20 -5 15 -12 19 -26 15 -25
-8 -46 4 -28 16 7 4 10 11 6 15 -3 4 -14 1 -24 -7 -15 -12 -16 -12 -10 4 4 11
2 17 -7 17 -8 0 -16 9 -19 20 -3 13 0 20 10 20 8 0 11 -5 7 -11 -3 -6 0 -15 7
-20 8 -4 16 -4 20 2 8 13 49 -10 49 -27 0 -14 38 -31 73 -33 20 -1 27 4 27 18
0 24 -29 36 -37 16 -3 -10 -9 -12 -17 -6 -6 5 -14 10 -18 10 -5 1 -8 3 -8 6 0
3 0 10 0 15 0 6 6 10 14 10 16 0 31 18 22 27 -3 3 -17 -2 -30 -11 -35 -22 -42
-20 -41 12 0 21 -5 28 -22 30 -13 2 -23 -1 -23 -7 0 -19 -28 -12 -35 8 -4 13
-12 18 -21 14 -10 -4 -17 2 -21 16 -3 12 -13 21 -24 21 -18 0 -18 -2 -4 -23z"/>
<path d="M923 2003 c0 -10 5 -24 11 -32 8 -11 8 -13 -1 -7 -21 12 -14 -5 10
-25 12 -10 16 -18 10 -19 -7 0 -22 9 -32 19 -17 17 -20 17 -25 4 -11 -27 -6
-33 21 -27 22 6 25 4 20 -10 -4 -10 -1 -16 8 -16 8 0 14 6 13 13 -2 6 5 11 15
9 10 -2 17 3 17 13 0 9 -4 14 -9 10 -10 -6 -41 49 -41 72 0 7 -4 13 -8 13 -5
0 -9 -8 -9 -17z"/>
<path d="M557 2004 c-4 -4 -7 -20 -7 -36 0 -26 2 -28 27 -22 l27 7 -24 -30
c-22 -26 -26 -28 -37 -14 -9 13 -14 13 -24 4 -10 -10 -9 -16 7 -28 27 -20 37
-19 74 14 22 18 29 31 21 35 -6 4 -9 11 -6 16 3 5 -4 12 -16 15 -11 4 -24 16
-28 26 -4 11 -10 17 -14 13z"/>
<path d="M835 1984 c-4 -10 -7 -28 -6 -39 3 -17 1 -18 -15 -5 -15 13 -17 13
-12 0 8 -24 39 -25 45 -1 3 12 9 21 14 21 5 0 9 7 9 16 0 8 -4 13 -9 10 -5 -4
-11 -1 -13 6 -3 7 -8 4 -13 -8z"/>
<path d="M1496 1984 c-9 -23 -8 -24 19 -24 14 0 25 5 25 10 0 6 -8 10 -17 10
-15 0 -16 2 -3 10 13 8 13 10 -1 10 -9 0 -20 -7 -23 -16z"/>
<path d="M1335 1970 c7 -23 -35 -57 -47 -37 -6 9 -5 -28 1 -53 1 -3 9 8 20 23
l18 28 17 -26 c19 -29 46 -34 45 -7 0 9 -3 12 -5 5 -8 -18 -34 -4 -34 18 0 11
7 22 15 25 21 9 18 17 -11 31 -22 10 -24 10 -19 -7z"/>
<path d="M1595 1980 c-4 -6 -2 -17 4 -24 13 -15 -4 -34 -26 -30 -7 1 -19 2
-25 3 -8 1 -5 7 6 16 23 17 14 20 -14 5 -26 -14 -70 -58 -70 -70 0 -18 28 -10
33 9 3 14 13 19 33 19 44 -1 70 10 82 36 8 19 8 27 -3 36 -9 8 -15 8 -20 0z"/>
<path d="M2124 1948 c-5 -7 -9 -30 -10 -51 l-2 -39 20 22 c17 18 18 24 7 31
-13 8 -6 13 14 10 4 0 7 8 7 19 0 22 -24 27 -36 8z"/>
<path d="M1465 1940 c-4 -6 -14 -9 -23 -8 -10 2 -16 -3 -14 -11 2 -8 -3 -11
-13 -8 -8 4 -15 2 -15 -4 0 -14 52 -2 65 15 6 7 16 11 23 9 6 -3 12 0 12 6 0
14 -27 14 -35 1z"/>
<path d="M2270 1910 c0 -23 25 -27 33 -6 7 16 -1 26 -20 26 -7 0 -13 -9 -13
-20z"/>
<path d="M840 1909 c-13 -6 -28 -15 -32 -22 -5 -8 -8 -6 -8 6 0 9 -4 17 -9 17
-13 0 -8 -25 8 -44 15 -17 36 -22 26 -6 -3 6 1 17 10 26 15 15 17 15 30 -2 8
-11 13 -24 10 -31 -2 -7 0 -15 5 -18 14 -9 12 -25 -3 -25 -7 0 -22 -7 -33 -15
-17 -14 -15 -14 20 0 46 18 49 18 40 4 -4 -7 -1 -10 7 -7 21 7 18 31 -6 45
-19 12 -19 12 8 13 26 0 27 2 15 23 -10 18 -13 19 -16 5 -5 -25 -32 -10 -32
18 0 26 -3 27 -40 13z"/>
<path d="M2213 1906 c8 -19 -3 -28 -19 -15 -15 13 -49 -2 -58 -26 -4 -11 -2
-14 7 -8 6 4 1 -7 -13 -24 -26 -33 -40 -41 -40 -23 0 6 -5 10 -11 10 -6 0 -9
-6 -7 -12 5 -13 -34 -38 -59 -38 -10 0 -12 6 -8 19 8 25 -7 34 -30 17 -19 -14
-12 -40 8 -30 7 3 4 -1 -5 -9 -24 -19 -23 -30 2 -22 10 3 28 1 39 -4 14 -8 22
-7 30 3 6 7 8 16 4 19 -3 4 -1 7 5 7 12 0 16 -13 13 -39 -2 -7 4 -11 11 -8 20
7 48 -11 42 -28 -4 -8 -1 -15 5 -15 15 0 14 12 -4 46 -8 16 -15 25 -15 20 0
-5 -7 -3 -16 5 -14 11 -13 14 3 23 18 10 24 12 43 15 6 0 10 8 10 17 0 14 -3
14 -15 4 -11 -9 -15 -9 -15 -1 0 6 8 15 18 18 9 4 24 16 34 28 9 11 20 17 24
12 4 -4 -2 -16 -14 -27 -12 -12 -22 -26 -22 -32 0 -6 9 -1 19 11 10 12 23 21
27 20 19 -3 34 1 34 11 0 5 -7 7 -15 4 -8 -4 -15 -1 -15 5 0 6 9 11 20 11 12
0 20 -7 20 -16 0 -19 31 -15 38 5 3 8 1 11 -4 8 -12 -7 -38 13 -47 36 -3 9
-11 17 -18 17 -6 0 -9 -6 -6 -14z"/>
<path d="M1585 1900 c-11 -5 -14 -9 -7 -9 8 -1 12 -7 9 -13 -2 -7 -12 -12 -22
-10 -20 4 -65 -35 -65 -55 0 -8 5 -11 10 -8 6 4 8 11 5 16 -4 5 4 8 17 6 14
-1 22 3 21 11 -2 6 2 12 7 12 6 0 10 -8 10 -18 0 -10 7 -27 15 -38 21 -27 18
-36 -7 -28 -22 6 -22 6 -5 -13 9 -11 14 -23 10 -26 -3 -4 3 -7 15 -7 21 0 31
-23 14 -34 -4 -3 -7 -24 -6 -48 3 -57 2 -56 19 -34 11 15 12 23 3 33 -8 10 -8
17 1 26 9 9 14 9 21 -3 8 -13 10 -12 10 3 0 9 -4 17 -10 17 -5 0 -10 4 -10 10
0 5 8 7 18 3 15 -5 14 -4 -2 9 -17 13 -17 15 -2 21 9 4 16 12 16 19 0 9 -3 9
-11 -2 -8 -12 -12 -12 -16 -2 -4 10 -8 10 -19 1 -17 -14 -32 -3 -17 12 6 6 10
17 7 23 -2 6 5 22 16 36 17 23 24 10 8 -15 -4 -6 -2 -17 4 -25 8 -12 9 -12 4
2 -3 10 -1 20 4 23 14 9 12 28 -5 51 -8 10 -14 15 -14 9 1 -5 -3 -23 -10 -39
-9 -23 -14 -26 -26 -16 -17 14 -21 55 -5 45 6 -4 8 -11 5 -16 -4 -5 -2 -9 3
-9 6 0 13 7 16 16 9 24 7 31 -5 14 -7 -11 -8 -5 -3 23 3 20 5 37 3 36 -2 0
-13 -4 -24 -9z"/>
<path d="M660 1885 c0 -8 7 -15 15 -15 8 0 15 4 15 10 0 5 7 6 17 3 11 -4 14
-3 9 5 -11 18 -56 15 -56 -3z"/>
<path d="M967 1883 c-4 -3 -7 -15 -7 -25 0 -10 -4 -18 -10 -18 -5 0 -10 -4
-10 -10 0 -17 27 -11 36 8 4 9 6 20 6 25 -1 4 3 7 8 7 6 0 10 5 10 10 0 11
-23 14 -33 3z"/>
<path d="M600 1865 c0 -8 -7 -15 -15 -15 -8 0 -15 -4 -15 -10 0 -5 7 -6 17 -3
11 4 14 3 9 -5 -4 -8 0 -12 10 -12 14 0 15 3 6 12 -9 9 -8 16 5 30 15 17 15
18 0 18 -10 0 -17 -7 -17 -15z"/>
<path d="M1060 1869 c0 -8 5 -20 11 -26 7 -7 13 -23 14 -37 2 -18 -1 -23 -12
-19 -13 5 -13 3 -2 -15 12 -19 14 -19 25 -4 6 9 10 22 7 29 -3 7 0 13 6 13 6
0 11 -4 11 -9 0 -6 12 -6 32 0 42 12 43 12 28 -6 -7 -9 -22 -14 -34 -13 -12 2
-22 -3 -24 -13 -2 -13 6 -16 49 -15 35 1 54 6 57 15 3 10 -1 12 -17 8 -11 -3
-19 -2 -17 2 12 18 14 61 4 67 -6 4 -18 -1 -27 -12 -17 -20 -63 -24 -69 -6 -1
5 -12 20 -23 33 -13 15 -19 18 -19 8z"/>
<path d="M1428 1844 c5 -43 -10 -44 -26 -1 -7 18 -16 28 -20 22 -10 -15 -62
-17 -77 -5 -9 8 -14 6 -18 -4 -3 -8 -2 -16 3 -18 6 -2 5 -9 0 -18 -9 -13 -11
-13 -21 0 -8 12 -9 11 -4 -7 9 -32 -13 -38 -26 -6 -8 22 -7 30 7 40 10 7 15
15 13 18 -3 3 -16 -5 -28 -16 -13 -12 -19 -24 -13 -28 5 -3 12 -16 16 -29 4
-12 21 -29 37 -37 28 -15 29 -15 28 7 0 13 -3 17 -6 11 -8 -20 -23 -15 -16 5
16 40 48 54 57 24 7 -22 46 -48 46 -30 0 6 2 9 5 6 3 -3 3 -12 0 -20 -6 -14
-10 -14 -36 -1 -17 8 -33 12 -36 9 -4 -3 0 -6 7 -6 7 0 -1 -13 -18 -30 -37
-35 -52 -38 -45 -10 6 22 3 23 -21 14 -20 -8 -21 -30 -1 -38 19 -7 19 -24 0
-28 -13 -2 -12 -6 5 -16 17 -11 20 -10 20 7 0 10 7 24 15 31 8 7 15 9 15 6 0
-4 11 5 23 20 23 26 25 26 55 13 18 -8 32 -18 32 -22 0 -5 -4 -5 -10 -2 -5 3
-10 -2 -10 -12 0 -15 -2 -16 -10 -3 -5 8 -10 11 -10 7 0 -4 -9 -3 -19 3 -12 6
-22 6 -25 1 -4 -5 8 -17 26 -26 30 -15 34 -15 45 2 12 16 13 16 13 0 0 -10 -7
-20 -15 -23 -11 -5 -12 -9 -2 -18 21 -21 47 -27 47 -10 0 8 7 17 15 20 8 4 15
10 15 16 0 5 -4 6 -10 3 -5 -3 -10 -1 -10 5 0 6 -4 9 -9 5 -5 -3 -13 0 -16 6
-4 6 2 13 15 16 16 4 18 8 8 14 -11 7 -10 11 2 19 13 10 13 11 0 9 -31 -3 -37
2 -37 31 0 25 4 30 24 30 13 0 23 3 24 8 5 52 3 68 -11 69 -12 1 -15 -7 -12
-33z m-42 -21 c-3 -8 -6 -19 -6 -24 0 -5 -5 -9 -11 -9 -6 0 -8 7 -5 16 3 8 2
12 -3 9 -12 -7 -24 12 -17 24 10 15 48 0 42 -16z"/>
<path d="M2356 1855 c-4 -14 -12 -25 -20 -25 -26 0 -54 -34 -45 -55 13 -33 10
-52 -4 -27 l-13 23 -13 -25 c-7 -13 -10 -29 -6 -35 10 -17 25 -3 19 17 -5 16
-5 16 8 0 13 -15 16 -14 32 13 9 16 12 29 7 29 -6 0 -11 6 -11 13 0 8 7 14 15
14 8 0 15 -6 15 -14 0 -7 8 -17 18 -20 9 -4 20 -10 23 -15 3 -5 17 2 31 15 24
23 27 23 52 8 14 -9 26 -21 26 -28 0 -20 17 -15 23 7 3 13 0 20 -9 20 -8 0
-14 4 -14 9 0 5 -12 14 -27 19 -19 7 -22 11 -10 11 13 1 17 7 15 24 -4 26 -34
30 -32 5 1 -10 -2 -18 -7 -18 -5 0 -9 5 -9 11 0 5 -5 7 -11 3 -6 -3 -8 -16 -5
-29 4 -14 0 -28 -9 -35 -13 -10 -16 -8 -21 19 -4 17 -11 28 -17 24 -6 -3 -7
-1 -3 5 4 7 16 12 28 12 14 0 18 5 14 15 -3 8 -1 15 5 15 6 0 7 5 4 10 -12 20
-43 10 -49 -15z"/>
<path d="M724 1861 c-2 -2 -17 -4 -34 -3 -36 1 -39 -5 -8 -17 14 -5 30 -4 41
3 14 9 21 7 31 -6 17 -23 21 -23 22 5 1 17 -4 22 -23 22 -14 0 -26 -2 -29 -4z"/>
<path d="M995 1850 c-3 -6 1 -13 10 -16 9 -4 14 -13 11 -20 -3 -8 0 -13 7 -11
7 1 10 -9 9 -28 -2 -25 2 -32 28 -44 42 -18 50 -7 10 14 -21 11 -30 21 -26 32
4 8 -3 30 -15 49 -23 37 -25 39 -34 24z"/>
<path d="M627 1835 c3 -8 -2 -18 -11 -21 -9 -3 -16 -12 -16 -19 0 -9 -8 -11
-22 -8 l-23 6 24 -27 c15 -16 27 -22 31 -16 4 6 15 8 26 4 16 -5 16 -4 4 5 -8
6 -10 11 -5 11 6 0 3 5 -5 10 -13 8 -12 10 3 10 9 0 17 -4 17 -9 0 -5 9 -11
21 -14 16 -4 18 -3 9 8 -6 7 -8 20 -4 29 3 9 2 16 -4 16 -6 0 -13 -6 -15 -12
-3 -7 -6 -3 -6 8 -1 12 -8 24 -15 27 -10 4 -13 1 -9 -8z"/>
<path d="M795 1819 c5 -15 4 -19 -4 -15 -14 9 -14 0 -1 -25 6 -10 17 -19 25
-19 18 0 20 -17 3 -23 -7 -2 -18 3 -25 12 -9 13 -11 11 -10 -12 2 -30 10 -33
47 -14 22 12 27 11 43 -7 10 -11 16 -28 14 -38 -6 -20 4 -23 20 -7 11 11 -4
59 -19 59 -5 0 -8 7 -8 15 0 9 -6 12 -15 9 -8 -4 -15 -1 -15 5 0 6 -11 11 -24
11 -23 0 -24 2 -15 32 11 41 12 38 -7 38 -11 0 -14 -6 -9 -21z"/>
<path d="M2237 1823 c10 -3 9 -8 -3 -20 -11 -11 -12 -19 -5 -26 8 -8 16 -6 28
5 13 14 14 20 3 32 -7 9 -18 16 -24 15 -7 0 -6 -2 1 -6z"/>
<path d="M1474 1808 c4 -11 0 -18 -9 -18 -8 0 -15 -4 -15 -9 0 -14 23 -19 45
-10 11 4 15 8 9 8 -6 1 -16 11 -23 24 -6 12 -9 14 -7 5z"/>
<path d="M2516 1811 c-3 -5 1 -22 9 -37 13 -26 13 -30 0 -40 -8 -6 -15 -21
-15 -33 0 -11 -3 -21 -7 -22 -5 0 -35 -1 -67 -2 -65 -2 -79 -16 -51 -47 9 -10
14 -24 10 -29 -3 -6 -2 -11 3 -11 5 0 12 -9 15 -20 6 -23 -8 -27 -17 -5 -3 8
-10 15 -15 15 -7 0 -7 -9 0 -24 7 -14 19 -24 30 -23 10 1 17 4 17 7 0 3 0 14
1 25 1 18 3 17 14 -5 9 -17 20 -24 36 -22 20 2 22 0 11 -13 -9 -10 -9 -15 -1
-15 6 0 11 3 12 8 0 4 2 15 4 24 2 10 -2 21 -7 25 -7 3 -8 1 -4 -5 5 -8 -1
-12 -15 -12 l-22 0 24 26 24 26 9 -47 c8 -38 13 -46 28 -42 10 3 18 1 18 -4 0
-5 9 -9 20 -9 11 0 20 -6 20 -14 0 -17 -27 -29 -32 -14 -4 11 -108 31 -117 23
-10 -10 10 -17 48 -18 31 -1 38 -4 30 -13 -6 -7 -7 -18 -3 -25 4 -8 11 -4 19
11 12 22 13 22 17 -13 3 -30 1 -34 -10 -25 -11 10 -13 8 -10 -8 2 -14 -4 -20
-24 -22 -20 -2 -28 -9 -28 -23 0 -11 5 -17 10 -14 6 4 8 11 5 16 -4 5 -1 9 5
9 7 0 9 -8 5 -20 -7 -23 13 -28 21 -5 4 8 10 13 14 10 14 -9 40 41 28 53 -15
15 14 43 32 32 20 -13 32 -1 24 23 -7 24 -49 67 -65 67 -6 0 -7 5 -4 10 3 6 2
10 -4 10 -6 0 -8 6 -6 13 2 6 -1 19 -8 28 -22 28 -44 29 -68 3 -19 -20 -24
-22 -31 -10 -5 8 -15 13 -23 10 -19 -8 -19 10 0 26 8 7 12 16 9 22 -4 5 -10 5
-17 -1 -8 -6 -16 -4 -25 5 -7 8 -11 14 -10 15 2 0 29 1 61 2 43 2 56 -1 53
-10 -3 -7 -1 -13 4 -13 6 0 10 5 10 10 0 6 7 10 15 10 18 0 20 -16 3 -23 -7
-3 0 -6 15 -6 20 -1 26 3 20 12 -4 6 -8 17 -9 22 0 6 -2 16 -2 23 -1 7 -7 10
-12 7 -6 -4 -8 -10 -6 -14 3 -4 -1 -8 -8 -8 -8 0 -11 8 -8 19 2 10 8 18 13 18
4 0 13 18 19 40 9 33 8 43 -4 55 -17 17 -23 18 -30 6z"/>
<path d="M940 1805 c0 -6 5 -16 12 -23 6 -6 8 -15 4 -19 -4 -4 -10 -3 -14 2
-4 6 -11 11 -17 12 -5 1 -19 5 -30 9 -19 6 -19 6 -3 -11 22 -23 98 -30 98 -9
0 8 -7 14 -15 14 -7 0 -19 8 -24 18 -6 9 -11 12 -11 7z"/>
<path d="M2142 1774 c-7 -8 -11 -20 -9 -27 4 -9 6 -9 6 1 1 6 7 12 15 12 8 0
16 7 20 15 7 19 -15 19 -32 -1z"/>
<path d="M709 1751 c12 -22 5 -31 -22 -31 -13 0 -17 5 -13 15 3 8 1 15 -4 15
-17 0 -20 -18 -5 -33 24 -24 18 -29 -15 -12 -23 12 -30 12 -30 3 0 -10 -2 -10
-9 1 -7 10 -12 10 -30 -5 -11 -10 -21 -22 -21 -26 0 -10 50 1 67 14 8 6 22 -2
45 -26 25 -28 37 -34 48 -26 12 8 11 10 -6 10 -12 0 -24 7 -28 15 -3 9 0 15 9
15 8 0 15 -5 15 -11 0 -5 4 -8 9 -4 6 3 9 14 8 24 -1 16 -5 17 -19 10 -10 -5
-18 -6 -18 -1 0 5 11 15 25 22 26 14 33 30 14 30 -5 0 -7 5 -4 10 3 6 -1 10
-10 10 -12 0 -14 -4 -6 -19z"/>
<path d="M748 1738 c-8 -48 0 -58 45 -54 23 2 49 -2 57 -8 13 -10 13 -9 1 7
-8 10 -27 17 -48 17 -27 0 -34 3 -29 15 6 17 -2 45 -14 45 -4 0 -9 -10 -12
-22z"/>
<path d="M1810 1750 c0 -5 -7 -7 -15 -4 -9 4 -15 0 -15 -10 0 -10 6 -13 15
-10 9 4 15 0 15 -9 0 -8 -4 -17 -9 -19 -4 -1 -5 -12 0 -23 7 -19 8 -19 8 3 1
12 5 22 11 22 5 0 8 13 7 30 -2 27 -17 45 -17 20z"/>
<path d="M2193 1753 c-25 -5 -52 -32 -34 -34 6 -1 16 -3 21 -4 6 -1 15 -3 21
-4 5 0 7 -6 3 -13 -4 -7 -3 -8 4 -4 7 4 12 2 12 -3 0 -6 -6 -11 -14 -11 -9 0
-14 -9 -13 -20 1 -19 3 -18 27 7 26 28 26 28 6 38 -26 13 -28 41 -2 37 11 -2
15 1 11 7 -3 6 -9 10 -13 10 -4 -1 -17 -4 -29 -6z"/>
<path d="M2584 1738 c3 -13 3 -17 0 -10 -9 19 -24 14 -24 -9 0 -15 5 -19 16
-15 8 3 12 2 9 -3 -3 -5 -1 -12 5 -16 6 -4 10 4 10 19 0 14 5 28 10 31 14 8 3
25 -16 25 -11 0 -14 -7 -10 -22z"/>
<path d="M1479 1741 c7 -5 11 -13 8 -18 -3 -4 6 -13 19 -20 13 -6 24 -8 24 -4
0 12 -40 51 -53 51 -8 0 -8 -3 2 -9z"/>
<path d="M2343 1719 c7 -11 13 -15 15 -9 2 5 13 10 25 10 29 0 15 10 -21 15
-29 3 -30 2 -19 -16z"/>
<path d="M1140 1720 c0 -5 -7 -10 -16 -10 -14 0 -14 -2 0 -15 19 -20 27 -19
19 2 -4 11 -3 14 5 9 7 -4 12 -1 12 8 0 9 -4 16 -10 16 -5 0 -10 -4 -10 -10z"/>
<path d="M2417 1703 c-20 -25 -13 -29 19 -10 17 9 19 15 10 23 -9 8 -16 5 -29
-13z"/>
<path d="M1050 1712 c0 -7 -12 -12 -27 -13 l-28 -1 25 -7 c24 -7 24 -7 5 -18
-16 -9 -18 -14 -7 -24 10 -11 12 -10 12 4 0 9 4 17 9 17 10 0 23 41 16 49 -3
2 -5 -1 -5 -7z"/>
<path d="M1075 1699 c-4 -6 1 -17 11 -24 18 -13 18 -14 -3 -9 -26 7 -40 -26
-23 -53 10 -15 10 -14 6 9 -4 15 -1 30 5 34 16 10 30 -18 17 -33 -6 -8 -8 -17
-4 -21 4 -4 12 1 17 11 6 9 14 15 20 12 5 -4 9 -2 9 3 0 6 -7 13 -16 16 -8 3
-12 10 -9 16 8 13 -3 50 -15 50 -5 0 -12 -5 -15 -11z"/>
<path d="M1166 1679 c-10 -10 -23 -16 -27 -13 -12 7 -11 -8 2 -26 7 -11 12
-12 15 -3 3 7 12 9 20 6 7 -3 11 -9 8 -14 -3 -5 -1 -9 4 -9 9 0 22 32 22 56 0
20 -24 22 -44 3z"/>
<path d="M2082 1675 c1 -14 6 -25 10 -25 4 0 5 -7 1 -16 -5 -14 -8 -12 -19 7
-7 13 -13 20 -13 14 -1 -20 19 -40 39 -41 24 -1 24 -1 5 36 -9 17 -11 30 -5
30 5 0 10 5 10 10 0 6 -7 10 -15 10 -10 0 -14 -9 -13 -25z"/>
<path d="M2265 1684 l-30 -15 28 6 c25 5 27 3 27 -24 0 -18 -7 -35 -17 -41
-15 -10 -15 -11 -1 -6 10 3 18 -2 21 -15 5 -19 27 -27 27 -9 0 6 -4 10 -10 10
-16 0 -11 30 6 37 15 5 15 7 0 15 -20 11 -20 22 0 42 14 15 14 16 -3 15 -10 0
-31 -7 -48 -15z"/>
<path d="M630 1666 c0 -8 -5 -16 -12 -18 -6 -2 -8 -10 -4 -16 9 -15 46 -16 46
-2 0 6 -4 10 -9 10 -5 0 -7 9 -4 20 3 11 0 20 -6 20 -6 0 -11 -6 -11 -14z"/>
<path d="M962 1660 c-7 -11 -15 -19 -20 -19 -4 1 -18 1 -31 0 -18 -1 -21 -4
-12 -14 11 -14 45 -16 57 -4 4 4 16 0 26 -10 10 -9 21 -13 26 -9 4 4 -3 16
-15 26 -13 10 -23 22 -23 26 0 4 5 3 12 -4 17 -17 24 -15 24 8 0 26 -27 26
-44 0z"/>
<path d="M1674 1645 c-3 -14 -10 -23 -14 -20 -5 3 -6 -4 -3 -15 3 -11 0 -20
-6 -20 -6 0 -11 -7 -11 -15 0 -8 4 -15 9 -15 14 0 26 22 26 45 0 14 6 19 21
18 21 -2 40 28 26 41 -14 15 -42 4 -48 -19z"/>
<path d="M1221 1633 c-5 -10 -5 -26 0 -40 6 -16 4 -27 -7 -38 -19 -19 -45 -20
-38 -1 3 8 1 17 -4 20 -6 3 -12 -1 -16 -9 -3 -8 -13 -15 -23 -15 -15 0 -16 -2
-3 -10 11 -7 11 -10 2 -10 -7 0 -10 -5 -7 -10 4 -6 11 -8 16 -5 5 3 6 -2 2
-11 -5 -14 -1 -13 23 4 42 31 87 38 108 17 9 -10 20 -14 24 -11 4 4 -9 21 -28
38 -19 17 -27 28 -17 25 10 -4 23 -7 28 -7 6 0 7 -5 3 -11 -4 -7 1 -10 11 -7
32 6 27 26 -10 39 -23 9 -34 18 -30 27 4 10 0 12 -11 8 -12 -4 -15 -2 -10 9 7
20 -1 19 -13 -2z"/>
<path d="M1488 1634 c19 -15 38 -18 45 -6 2 4 3 2 1 -4 -3 -13 15 -34 30 -34
6 0 5 5 -2 12 -7 7 -12 19 -12 28 0 12 -10 16 -39 16 -35 0 -38 -1 -23 -12z"/>
<path d="M2213 1630 c-13 -10 -23 -22 -23 -27 0 -4 -11 -9 -25 -9 -14 -1 -22
2 -19 7 3 5 12 9 20 9 8 0 14 5 14 10 0 14 -13 13 -35 -3 -23 -18 -11 -40 17
-31 18 5 20 3 14 -12 -17 -42 -17 -49 -2 -30 14 17 20 16 18 -4 0 -3 8 -6 18
-7 15 -1 17 2 10 20 -4 12 -13 21 -19 20 -23 -6 -9 18 18 29 20 9 27 18 22 30
-5 15 -8 15 -28 -2z"/>
<path d="M1313 1624 c-18 -19 -16 -22 12 -20 14 0 25 5 25 9 0 5 5 5 10 2 7
-5 8 -11 1 -19 -7 -8 -4 -15 9 -24 12 -7 20 -8 22 -1 7 20 38 -3 38 -28 0 -13
4 -22 9 -19 12 8 47 -34 35 -42 -16 -12 -35 -62 -23 -62 6 0 17 -7 25 -15 9
-8 11 -15 5 -15 -5 0 -13 5 -16 10 -4 6 -16 8 -27 4 -14 -4 -18 -2 -14 5 4 6
2 11 -4 11 -6 0 -15 11 -20 25 -5 14 -16 25 -25 25 -8 0 -15 9 -15 21 0 11 -4
18 -9 15 -5 -4 -11 0 -14 6 -2 7 -7 11 -10 8 -3 -3 1 -20 10 -38 11 -24 21
-32 34 -29 14 4 18 -3 21 -35 2 -22 0 -42 -4 -44 -4 -3 -8 9 -8 26 0 34 -35
58 -66 46 -16 -6 -16 -7 1 -20 10 -7 15 -18 12 -23 -4 -6 0 -14 9 -17 8 -3 12
-2 9 4 -3 6 -1 10 6 10 8 0 7 5 -2 17 -12 14 -12 16 1 11 8 -2 15 -11 16 -19
0 -8 6 -40 13 -72 7 -32 11 -61 8 -63 -10 -10 -36 10 -47 36 -7 16 -32 46 -56
67 -50 43 -58 73 -20 73 14 0 28 5 32 12 5 8 0 9 -14 6 -27 -7 -28 0 -4 19 16
13 15 14 -6 9 -20 -4 -23 -1 -19 16 5 19 5 19 -14 2 -23 -21 -25 -36 -3 -27
12 4 15 2 12 -8 -3 -8 -16 -14 -31 -14 -14 -1 -24 2 -21 6 6 10 -6 39 -17 39
-13 0 -11 -34 3 -48 7 -7 20 -12 31 -12 11 0 17 -5 14 -12 -3 -7 14 -32 36
-55 25 -26 35 -43 26 -43 -16 0 -203 178 -235 225 -12 17 -19 35 -17 42 2 6
-1 15 -8 19 -9 5 -10 2 -6 -9 6 -16 -17 -32 -33 -22 -5 3 -11 1 -14 -4 -3 -5
5 -12 19 -15 27 -7 25 -21 -7 -66 -21 -29 -27 -25 -31 27 -5 50 -13 63 -38 63
-11 0 -18 -4 -14 -10 3 -5 12 -7 20 -3 8 3 15 1 15 -5 0 -8 -53 -26 -71 -24
-6 1 -9 -16 -10 -50 0 -19 -19 -26 -19 -8 0 14 -43 13 -58 -2 -7 -7 -12 -23
-12 -36 0 -17 -4 -23 -15 -18 -8 3 -15 1 -15 -4 0 -6 -7 -10 -15 -10 -8 0 -15
6 -15 13 0 8 -3 8 -8 1 -4 -6 -24 -11 -45 -11 -43 -1 -58 -10 -38 -22 8 -5 10
-14 6 -22 -6 -9 -3 -11 8 -6 13 5 17 1 17 -18 0 -14 -5 -25 -11 -25 -7 0 -8
-11 -3 -32 6 -30 5 -32 -11 -18 -17 14 -18 13 -13 -12 6 -33 -4 -36 -31 -9
-20 20 -20 20 -18 -7 2 -22 -2 -26 -17 -24 -18 3 -18 2 -2 -13 16 -17 14 -35
-5 -35 -6 0 -8 4 -5 9 3 5 -1 12 -10 15 -8 3 -12 10 -9 16 3 5 0 7 -8 4 -8 -3
-18 -1 -22 5 -3 6 -11 11 -18 11 -6 0 -2 -7 9 -15 16 -13 17 -16 4 -25 -12 -8
-10 -10 10 -11 l25 -1 -25 -7 c-31 -10 -41 -5 -33 14 4 11 1 13 -11 9 -9 -3
-16 -1 -16 5 0 6 4 11 9 11 5 0 8 8 6 18 -1 9 -10 16 -18 16 -12 -1 -14 3 -8
15 14 28 2 41 -32 35 -24 -4 -28 -3 -17 5 20 14 3 28 -18 15 -22 -14 -30 -49
-10 -41 8 3 21 1 29 -3 8 -6 17 -4 22 3 5 7 7 3 4 -12 -4 -17 -1 -25 13 -28
11 -3 16 -11 13 -19 -4 -11 -9 -12 -19 -3 -7 6 -18 8 -24 4 -5 -3 -15 -3 -22
1 -8 5 -5 11 7 20 10 8 15 17 10 21 -4 5 -10 3 -12 -4 -2 -7 -12 -9 -20 -6
-12 5 -15 2 -10 -10 4 -12 1 -17 -9 -17 -10 0 -14 6 -10 15 3 8 0 15 -6 15 -7
0 -6 5 2 15 10 12 9 15 -8 15 -19 0 -36 -32 -23 -45 3 -4 6 -10 7 -13 3 -21
18 -42 30 -42 19 0 18 -16 -1 -24 -8 -3 -15 -10 -15 -16 0 -18 29 -11 70 16
35 24 41 25 55 11 8 -9 15 -22 15 -29 0 -10 2 -10 9 1 5 7 13 11 19 7 6 -3 13
-2 17 4 10 17 38 12 31 -5 -8 -21 20 -31 39 -15 12 10 15 9 15 -9 0 -26 12
-27 35 -1 10 12 25 18 33 15 12 -4 13 -3 2 10 -11 14 -14 13 -26 -2 -13 -17
-15 -17 -30 2 -15 19 -16 19 -29 2 -7 -10 -16 -14 -19 -9 -3 5 3 17 14 27 11
10 20 26 20 37 0 15 5 17 28 12 36 -9 43 -14 37 -24 -3 -4 2 -11 10 -14 10 -3
15 -16 13 -36 -2 -24 -6 -29 -20 -24 -12 4 -18 0 -18 -11 0 -13 8 -15 38 -11
20 3 29 3 20 0 -22 -7 -24 -24 -3 -24 8 0 19 8 24 19 18 32 145 16 134 -17 -4
-13 -3 -14 5 -4 5 8 12 13 16 13 20 -3 26 1 26 14 0 8 -8 15 -17 15 -15 0 -16
-2 -3 -10 13 -8 13 -10 -1 -10 -9 0 -27 9 -40 20 -20 16 -21 19 -7 20 9 0 19
-4 23 -10 3 -5 13 -6 22 -3 9 4 21 -1 29 -12 9 -12 14 -14 14 -6 0 9 4 10 13
4 6 -5 27 -10 46 -12 56 -5 82 -18 74 -38 -6 -15 -4 -16 8 -6 15 12 66 7 75
-8 3 -5 -12 -9 -32 -9 -35 0 -36 -1 -21 -18 10 -10 14 -22 10 -27 -5 -5 10 1
31 14 26 14 42 19 49 12 15 -15 0 -41 -24 -41 -12 0 -19 -3 -16 -7 9 -8 -13
-34 -24 -27 -12 7 -22 -37 -16 -72 3 -25 4 -24 6 8 1 29 7 41 29 55 15 9 39
28 54 41 17 16 34 23 47 19 14 -3 21 0 21 9 0 8 6 11 15 8 26 -10 17 -21 -29
-34 -57 -16 -81 -41 -72 -75 4 -14 11 -23 17 -19 6 3 8 16 5 29 -7 29 8 41 65
49 57 8 94 -16 109 -75 7 -25 15 -37 22 -33 7 4 8 3 4 -5 -4 -6 5 -37 19 -69
32 -68 33 -107 6 -186 -25 -71 -25 -76 -6 -76 8 0 15 8 15 19 0 22 29 94 41
101 11 8 14 59 5 90 -5 16 -4 20 2 12 7 -10 12 -9 23 4 9 12 10 15 2 10 -7 -4
-13 -2 -13 3 0 6 4 11 8 11 5 0 18 9 30 20 20 19 40 12 27 -10 -7 -12 43 -33
62 -26 23 9 14 29 -11 24 -18 -4 -27 1 -35 19 -17 37 -14 41 27 36 34 -5 38
-2 48 23 9 26 10 24 8 -22 -2 -28 -9 -64 -15 -80 -7 -16 -11 -33 -10 -37 0 -4
-4 -18 -11 -30 -15 -28 -21 -174 -8 -182 6 -3 9 -16 9 -28 -1 -17 -2 -18 -6
-4 -2 9 -9 17 -14 17 -5 0 -9 8 -10 18 0 14 -2 14 -9 -3 -12 -29 -12 -35 4
-29 10 4 15 -10 18 -63 3 -43 1 -71 -6 -76 -8 -5 -7 -10 3 -16 10 -6 12 -24 8
-65 -5 -54 -1 -61 26 -57 4 0 7 -8 7 -20 0 -11 -4 -17 -10 -14 -5 3 -10 2 -10
-3 0 -13 -71 -9 -95 6 -11 6 -14 12 -7 12 7 0 10 6 7 13 -4 6 0 4 8 -6 12 -15
16 -15 26 -3 9 11 8 17 -4 30 -9 9 -22 13 -28 9 -18 -11 -36 -12 -42 -3 -3 5
-1 11 4 15 6 3 1 15 -11 27 -16 16 -18 22 -7 29 9 6 10 12 4 17 -14 10 -35 59
-35 82 0 11 -6 20 -12 20 -8 0 -14 14 -15 33 0 17 1 26 4 20 8 -22 23 -14 23
12 0 28 -12 32 -33 11 -19 -19 1 -130 43 -244 16 -45 30 -92 30 -103 0 -15 5
-19 15 -15 8 3 15 1 15 -5 0 -6 6 -6 18 0 23 12 70 16 105 7 70 -16 77 -16 77
-2 0 7 -9 16 -20 19 -16 4 -20 13 -20 49 0 23 7 68 15 98 8 30 18 91 21 135 6
70 3 90 -20 158 -29 88 -32 125 -11 182 8 23 11 56 8 76 -3 24 -1 39 8 45 7 4
14 3 17 -4 2 -7 10 -12 18 -12 8 0 14 -4 14 -10 0 -15 16 -12 62 10 59 28 76
11 38 -38 -13 -16 -31 -26 -48 -27 -36 -1 -72 -14 -72 -26 0 -13 14 -11 28 3
9 9 12 6 12 -16 0 -15 4 -25 9 -22 5 3 7 14 4 25 -7 26 24 35 37 10 11 -19 5
-43 -8 -35 -4 2 -15 -7 -25 -20 -19 -25 -10 -33 12 -11 10 10 11 6 5 -18 -4
-16 -3 -27 1 -23 5 4 15 2 23 -5 13 -10 15 -9 8 8 -16 39 -18 55 -8 55 6 0 12
-6 15 -12 2 -7 4 1 3 17 0 17 -4 33 -8 36 -5 3 2 16 14 29 13 14 23 31 23 40
0 22 56 14 74 -11 15 -21 56 -26 67 -8 8 14 -14 29 -43 29 -13 0 -23 5 -23 10
0 6 13 10 29 10 30 0 31 2 22 63 0 4 -6 7 -12 7 -6 0 -9 -6 -6 -13 7 -17 -4
-34 -23 -39 -17 -3 -20 2 -20 30 0 14 2 15 10 2 7 -11 8 -7 4 15 -5 29 -4 30
30 30 20 0 36 -4 36 -9 0 -5 8 -2 19 8 24 22 42 13 66 -29 10 -20 40 -56 67
-81 26 -24 48 -53 48 -63 0 -27 32 -22 64 12 29 30 45 25 46 -15 0 -11 6 -15
20 -11 25 7 26 -9 1 -31 -11 -10 -17 -24 -14 -32 6 -17 25 -19 21 -1 -1 6 3
22 10 35 7 12 10 27 7 32 -9 14 9 12 23 -2 9 -9 12 -9 12 0 0 18 79 12 90 -7
5 -9 10 -11 10 -4 0 6 3 19 7 29 4 11 3 15 -5 10 -6 -3 -14 -2 -17 4 -5 8 -11
7 -21 -1 -18 -15 -71 -5 -98 19 -17 14 -18 14 -8 1 10 -14 10 -18 -4 -23 -20
-8 -21 -7 -26 19 -1 11 -9 26 -16 34 -18 19 -10 23 22 11 15 -5 47 -10 70 -10
65 0 104 -10 109 -29 4 -14 5 -14 6 2 1 21 14 22 30 3 15 -18 49 -27 57 -15 3
5 10 7 15 4 5 -4 9 -2 9 4 0 6 -12 14 -27 17 -16 4 -33 10 -38 15 -6 4 -46 8
-90 10 -90 2 -178 17 -171 28 7 10 68 1 85 -12 10 -9 13 -7 10 8 -4 16 -14 20
-69 23 -49 2 -77 10 -116 32 -27 16 -69 32 -93 35 -23 3 -50 9 -59 14 -11 6
-24 6 -35 -1 -12 -6 -22 -6 -30 0 -7 5 -38 13 -69 16 -80 10 -76 29 5 22 99
-8 151 -18 159 -30 5 -6 8 -7 8 -1 0 6 35 9 91 6 80 -3 93 -6 115 -27 13 -14
24 -31 24 -39 0 -18 14 -19 40 -2 17 10 22 9 30 -3 6 -9 10 -10 10 -3 0 7 9
10 21 8 22 -4 59 14 59 29 0 5 -8 2 -18 -7 -26 -24 -30 -21 -29 15 1 18 8 33
17 35 13 4 13 3 0 -7 -12 -9 -11 -10 7 -5 12 3 25 1 29 -6 4 -8 11 -2 20 17
10 23 13 25 13 9 1 -16 3 -17 11 -5 10 16 62 22 71 7 4 -5 12 0 18 12 7 11 18
21 26 21 20 0 19 -16 -1 -24 -9 -4 -14 -9 -11 -12 3 -3 15 -1 26 6 25 13 27 7
6 -14 -11 -11 -25 -13 -48 -9 -30 6 -31 6 -14 -11 9 -10 17 -20 17 -23 0 -7
-32 18 -47 37 -10 13 -12 12 -10 -7 1 -13 5 -23 10 -23 5 0 5 -10 2 -21 -4
-12 -3 -19 1 -17 5 2 27 12 49 22 22 10 46 26 55 36 8 9 25 22 38 29 23 12 21
36 -3 27 -8 -3 -16 5 -19 20 -4 14 -11 22 -16 19 -5 -3 -7 -12 -4 -19 4 -10
-7 -12 -46 -10 -34 2 -49 0 -44 -7 4 -8 0 -8 -14 0 -28 15 -32 14 -25 -5 5
-14 2 -14 -32 0 -44 19 -51 16 -35 -13 14 -27 0 -27 -23 -1 -17 20 -54 29 -42
10 4 -6 11 -7 17 -4 6 4 9 1 6 -7 -3 -8 -12 -13 -22 -11 -9 2 -16 -2 -16 -8 0
-5 -8 -10 -17 -10 -24 0 -87 23 -95 35 -5 6 -8 6 -8 -1 0 -7 -12 -15 -27 -19
-20 -5 -31 -2 -40 11 -12 16 -13 16 -13 1 0 -9 -7 -17 -15 -17 -20 0 -19 14 1
35 9 9 13 19 9 23 -4 4 -10 1 -12 -6 -3 -6 -10 -9 -16 -5 -6 4 -8 0 -4 -9 5
-13 -1 -16 -29 -13 -19 1 -37 -1 -39 -5 -3 -5 -14 -6 -25 -3 -11 3 -17 9 -14
14 3 5 0 9 -5 9 -6 0 -11 -4 -11 -10 0 -5 -7 -10 -15 -10 -9 0 -12 6 -8 16 5
14 3 14 -15 3 -22 -14 -39 -8 -27 10 3 6 28 11 56 11 36 0 49 4 49 14 0 8 7
22 17 31 14 14 14 18 2 26 -12 8 -11 11 4 20 23 14 22 39 -3 39 -11 0 -17 -5
-15 -12 7 -20 -21 -93 -37 -94 -7 0 -15 -2 -18 -3 -29 -14 -60 -9 -75 11 l-17
23 7 -22 c4 -14 2 -23 -4 -23 -16 0 -33 39 -24 54 10 16 85 82 90 79 2 -2 8
-3 14 -3 8 0 8 4 -1 15 -10 12 -16 11 -40 -7 -18 -13 -37 -19 -50 -15 -15 4
-20 2 -16 -8 2 -7 -1 -18 -8 -25 -10 -8 -16 -6 -22 7 -4 10 -8 24 -8 32 -1 8
-7 16 -14 19 -7 2 -10 -2 -6 -12 3 -9 1 -16 -4 -16 -16 0 -24 18 -12 25 8 5 8
11 0 21 -7 7 -10 19 -7 26 4 8 8 5 12 -8 5 -14 15 -21 31 -21 18 0 24 4 19 15
-9 25 13 41 49 35 22 -3 36 -1 41 8 6 9 3 11 -9 6 -10 -4 -22 -4 -28 -1 -14 9
11 24 42 24 l25 1 -23 10 c-13 5 -35 6 -49 3 -16 -4 -29 -2 -35 7 -7 10 -7 8
-3 -8 4 -14 2 -23 -5 -23 -6 0 -9 -4 -5 -9 3 -5 1 -12 -5 -16 -5 -3 -10 -1
-10 4 0 6 -4 11 -9 11 -5 0 -8 -12 -5 -27 4 -23 3 -25 -10 -13 -9 7 -13 17 -9
23 3 6 1 7 -5 3 -7 -4 -12 -1 -12 9 0 9 -4 14 -9 11 -10 -6 -9 -55 1 -71 4 -6
3 -17 -1 -24 -6 -9 -11 -10 -15 -3 -9 15 -36 4 -36 -14 0 -8 -13 -26 -30 -40
-16 -15 -33 -36 -36 -48 -4 -11 -19 -37 -34 -56 -16 -19 -31 -45 -35 -58 -5
-16 -12 -21 -25 -17 -10 3 -21 1 -25 -5 -7 -11 -25 -4 -25 11 0 5 12 9 28 9
23 0 27 4 28 30 1 19 -4 30 -12 30 -7 0 -11 6 -8 14 8 21 -12 28 -27 9 -10
-12 -10 -14 -1 -9 6 4 12 2 12 -3 0 -6 -4 -11 -10 -11 -5 0 -10 -5 -10 -11 0
-6 9 -8 20 -4 22 7 25 -2 10 -25 -8 -13 -11 -13 -19 -1 -5 7 -14 10 -20 7 -15
-10 -14 24 2 61 8 19 18 27 30 25 9 -2 17 -7 17 -12 0 -5 9 -7 19 -5 14 3 18
-1 14 -11 -8 -21 5 -17 17 6 9 18 6 21 -35 31 -46 12 -62 40 -29 53 8 3 13 2
10 -3 -3 -5 1 -12 10 -15 8 -3 13 -10 10 -14 -3 -5 0 -9 7 -9 7 0 13 11 13 24
2 30 9 37 29 30 19 -8 20 -27 0 -27 -19 0 -19 -7 -1 -26 13 -12 17 -11 30 8
12 17 13 24 3 30 -9 6 -9 10 3 17 12 9 12 11 -3 17 -9 3 -15 9 -12 14 2 4 -8
13 -23 20 -25 11 -25 13 -8 19 13 5 16 10 9 14 -7 4 -19 -3 -28 -15 -15 -23
-16 -23 -13 12 4 62 32 123 66 147 19 12 27 23 20 25 -8 3 -5 10 9 22 13 12
19 25 15 40 -5 19 -4 20 13 6 17 -14 18 -13 12 3 -4 10 -7 21 -7 23 0 12 -30
2 -39 -13 -8 -14 -10 -15 -11 -3 0 10 -5 7 -16 -8 -10 -14 -25 -22 -45 -22
-16 0 -29 -5 -29 -10 0 -12 32 -8 74 9 16 6 31 9 34 6 4 -3 -4 -8 -17 -12 -13
-3 -20 -11 -17 -19 3 -7 -6 -27 -19 -43 -14 -16 -25 -35 -25 -42 0 -11 -2 -11
-10 1 -7 11 -2 21 18 37 15 12 22 22 17 23 -6 0 -16 -5 -23 -12 -8 -8 -12 -9
-12 -1 0 17 -30 44 -41 37 -6 -3 0 -14 12 -25 18 -15 19 -19 6 -19 -16 0 -20
-9 -15 -27 1 -5 8 -7 15 -5 7 2 13 -2 13 -8 0 -5 -4 -10 -9 -10 -5 0 -7 -9 -4
-21 7 -24 -17 -45 -29 -26 -4 6 -2 14 4 18 5 4 6 9 1 12 -4 3 -17 -1 -28 -9
-19 -14 -19 -16 -2 -25 12 -7 16 -17 12 -30 -5 -14 -3 -17 9 -13 11 4 16 0 16
-15 0 -12 -6 -21 -15 -21 -11 0 -12 -5 -5 -24 6 -17 4 -30 -6 -45 -8 -11 -12
-21 -8 -21 5 0 3 -5 -4 -12 -7 -7 -12 -23 -12 -36 0 -19 -4 -23 -20 -19 -11 3
-23 0 -27 -5 -3 -7 -1 -8 5 -4 7 4 12 1 12 -8 0 -8 -5 -16 -12 -18 -9 -3 -9
-6 0 -12 7 -4 12 -2 12 3 0 20 18 11 24 -12 3 -13 17 -40 30 -60 14 -20 23
-44 20 -52 -7 -18 -21 -19 -27 -2 -3 6 -6 -1 -6 -16 -1 -18 -5 -26 -12 -21 -6
3 -9 15 -6 25 3 10 0 17 -7 16 -6 -1 -10 8 -8 22 2 14 0 21 -6 17 -16 -9 -7
-82 12 -101 23 -24 21 -30 -28 -69 -46 -38 -60 -43 -72 -24 -5 8 -2 9 10 5 14
-5 15 -3 6 12 -7 14 -6 20 6 25 18 7 44 65 37 83 -6 16 -33 -29 -33 -55 0 -13
-3 -13 -19 2 -19 17 -19 17 -15 -6 5 -19 4 -20 -5 -6 -12 18 -4 51 10 42 13
-8 10 8 -5 29 -18 24 -29 21 -20 -5 6 -21 5 -21 -10 -9 -10 9 -13 18 -8 23 11
11 4 48 -9 48 -5 0 -9 7 -9 15 0 19 19 19 26 0 4 -8 10 -15 16 -15 5 0 6 5 3
10 -3 6 1 10 10 10 23 0 41 20 47 52 6 32 -24 58 -66 58 -26 0 -43 -16 -31
-28 4 -4 10 -1 12 6 3 6 16 12 29 12 14 0 23 -4 19 -9 -3 -5 1 -15 8 -23 18
-17 10 -38 -13 -38 -27 0 -110 37 -110 49 0 6 11 18 26 27 19 13 22 20 13 28
-8 8 -13 8 -16 -1 -3 -7 -13 -23 -24 -35 l-19 -23 -26 30 c-14 17 -23 24 -19
16 11 -20 -16 -9 -29 12 -8 12 -7 23 2 38 12 19 11 20 -7 14 -18 -5 -21 -2
-22 22 -1 44 -12 64 -29 53 -10 -6 -11 -10 -3 -10 7 0 12 -10 12 -22 -1 -13 2
-38 6 -55 6 -26 4 -33 -8 -33 -11 0 -15 11 -14 43 0 23 -5 53 -12 65 -7 13
-10 35 -7 48 5 17 2 24 -8 24 -8 0 -17 6 -20 13 -3 8 -10 6 -21 -8 -9 -11 -26
-20 -38 -20 -14 0 -26 -10 -35 -28 -7 -15 -18 -25 -23 -22 -6 4 -5 13 0 24 7
13 6 18 -3 18 -7 0 -13 -5 -13 -11 0 -6 -4 -18 -7 -27 -5 -11 -1 -18 13 -22
27 -7 27 -27 1 -34 -11 -3 -17 -10 -13 -16 4 -6 0 -8 -10 -4 -9 3 -19 2 -22
-2 -4 -8 120 -38 188 -45 42 -5 42 -5 30 -17 -6 -6 -9 -18 -6 -25 5 -13 -24
-3 -81 27 -10 6 -28 12 -40 15 -104 20 -137 26 -176 31 -55 7 -61 8 -83 18
-10 4 -23 2 -31 -4 -16 -14 -66 25 -66 52 0 9 -4 17 -10 17 -5 0 -10 7 -10 15
0 8 5 15 10 15 6 0 10 11 10 24 0 44 9 57 33 44 18 -9 17 -6 -6 21 -27 32 -36
71 -17 71 6 0 10 -7 10 -15 0 -17 16 -20 25 -4 4 6 13 8 20 5 7 -2 17 0 23 6
8 8 16 7 28 -3 10 -8 15 -9 11 -2 -4 6 -3 14 1 17 5 3 7 17 4 31 -4 25 12 35
21 13 3 -8 6 -5 6 6 1 16 3 16 21 -5 10 -13 19 -20 20 -15 0 5 7 3 15 -4 9 -7
19 -9 23 -5 4 4 1 10 -6 12 -6 3 -9 9 -6 14 3 6 0 17 -8 26 -9 12 -9 15 0 9 6
-4 12 -3 12 2 0 17 30 22 50 10 13 -9 18 -19 14 -35 -5 -19 -3 -21 25 -18 41
5 54 14 47 31 -7 18 12 69 22 60 7 -7 7 -11 11 -56 1 -23 3 -24 15 -7 17 22
26 22 26 -3 0 -11 -4 -20 -10 -20 -19 0 -10 -16 21 -39 25 -19 33 -21 40 -10
6 10 9 8 9 -8 0 -13 -5 -23 -11 -23 -5 0 -8 -4 -4 -9 3 -5 -3 -12 -12 -14 -17
-4 -17 -5 -1 -6 11 -1 15 -6 12 -16 -5 -12 -9 -12 -28 0 -20 13 -23 13 -23 0
0 -8 4 -12 8 -10 4 3 9 -2 13 -10 3 -8 12 -15 20 -15 8 0 17 -6 19 -12 3 -7 6
10 6 38 1 34 6 54 14 57 10 4 13 -2 9 -20 -4 -24 -3 -25 24 -20 23 4 34 -1 61
-30 39 -41 42 -63 9 -63 -14 0 -27 -4 -30 -9 -4 -5 14 -9 39 -9 30 1 52 -5 65
-17 11 -10 20 -14 20 -8 0 13 -34 43 -49 43 -7 0 -10 4 -6 9 3 5 1 12 -5 16
-15 9 -12 25 5 25 8 0 15 -5 15 -11 0 -6 6 -16 13 -23 6 -7 23 -28 37 -46 14
-18 37 -46 53 -62 32 -35 33 -38 8 -38 -11 0 -23 9 -26 20 -3 11 -11 20 -16
20 -14 0 -11 -16 5 -30 8 -6 13 -17 10 -24 -3 -8 3 -16 13 -20 10 -3 24 -9 32
-12 10 -5 12 -2 8 10 -4 10 -1 16 8 16 15 0 49 43 59 77 6 18 4 22 -7 17 -19
-7 -31 25 -15 43 9 12 7 13 -18 10 -17 -2 -30 -11 -32 -20 -4 -20 14 -23 21
-4 4 9 6 9 6 0 1 -19 -18 -26 -34 -13 -18 15 -20 -1 -2 -18 6 -7 13 -17 13
-22 1 -6 2 -13 3 -17 0 -3 10 2 21 12 11 10 23 15 27 11 4 -3 -3 -15 -14 -25
-20 -19 -21 -19 -46 4 -28 27 -52 88 -43 111 3 8 0 25 -6 39 -10 21 -8 28 12
45 13 11 30 20 39 20 13 -1 13 -3 -3 -15 -17 -13 -17 -15 -4 -15 9 0 20 5 24
12 5 8 10 6 15 -8 6 -16 8 -16 8 -2 1 12 6 15 17 11 14 -5 15 -3 4 18 -7 13
-20 32 -28 42 -13 15 -14 22 -4 37 12 19 7 50 -8 50 -4 0 -20 20 -36 45 -15
25 -33 45 -40 45 -6 0 -17 7 -24 15 -9 11 -16 12 -25 5 -8 -7 -14 -7 -17 -1
-1 5 -9 3 -15 -5z m-223 -333 c0 -5 -6 -11 -14 -14 -19 -8 -14 -32 10 -54 14
-12 21 -31 21 -58 1 -40 1 -40 -11 -12 -7 15 -15 25 -18 22 -3 -3 -17 0 -32 6
-25 12 -25 13 -10 31 10 11 12 18 6 18 -7 0 -12 5 -12 11 0 5 5 7 10 4 6 -3
11 1 11 9 1 9 3 21 4 26 1 6 3 12 4 15 2 9 31 5 31 -4z m-59 -35 c-6 -7 -9
-20 -5 -29 3 -8 0 -18 -6 -22 -14 -9 6 -35 27 -35 8 0 11 -4 8 -10 -3 -5 -15
-10 -26 -10 -11 0 -18 4 -15 8 2 4 -11 6 -31 4 -25 -3 -34 -1 -29 7 4 6 11 11
17 11 9 0 49 36 49 44 0 2 -9 2 -20 -1 -27 -7 -25 12 2 31 28 20 44 21 29 2z
m609 -16 c0 -6 -7 -13 -15 -16 -8 -4 -15 -12 -15 -20 0 -8 -4 -14 -10 -14 -5
0 -10 7 -10 16 0 8 -4 12 -10 9 -12 -7 -12 -3 -4 19 7 18 64 23 64 6z m-1240
-22 c0 -4 -10 -12 -21 -19 -18 -9 -25 -8 -40 7 -18 18 -17 19 21 19 22 1 40
-2 40 -7z m1433 -10 c21 -10 26 -18 22 -35 -4 -18 -2 -21 12 -16 12 5 15 2 10
-10 -3 -9 -2 -17 3 -17 5 0 7 -7 4 -15 -4 -8 -1 -15 6 -15 6 0 9 -4 6 -9 -4
-5 2 -7 13 -4 11 3 21 -2 25 -12 5 -14 1 -16 -27 -10 -39 9 -40 10 -42 38 -2
24 -30 31 -30 7 0 -8 -4 -18 -10 -22 -6 -4 -2 -8 8 -8 9 0 17 -4 17 -10 0 -5
-10 -9 -22 -7 -17 1 -23 -5 -28 -28 -12 -54 -28 -75 -60 -75 -16 0 -32 -5 -36
-11 -3 -6 -15 -9 -25 -6 -12 3 -20 -2 -25 -15 -3 -10 -11 -17 -17 -15 -15 5
-34 -14 -39 -39 -5 -26 -32 -24 -36 3 -4 25 15 66 27 59 4 -3 14 6 21 20 8 14
21 23 29 21 9 -2 33 5 53 15 21 10 46 18 57 18 14 0 19 5 15 15 -4 8 -10 12
-15 9 -5 -3 -9 0 -9 5 0 6 5 11 10 11 6 0 25 14 41 31 27 28 29 33 15 41 -9 5
-13 14 -10 20 5 7 2 9 -9 5 -9 -3 -18 1 -22 10 -4 13 -8 14 -17 5 -14 -14 -28
-16 -28 -3 0 5 16 16 35 25 19 9 35 21 35 26 0 13 11 12 43 -2z m-1092 -53 c5
4 16 2 25 -3 14 -8 12 -10 -10 -14 -14 -3 -26 -1 -26 5 0 6 -4 6 -12 0 -19
-15 -48 -12 -48 5 0 10 7 12 25 8 17 -4 25 -2 26 6 0 10 2 10 6 0 2 -6 9 -10
14 -7z m1037 -35 c16 -25 11 -34 -28 -50 -21 -9 -30 -19 -30 -36 0 -19 -5 -24
-25 -24 -14 0 -25 -5 -25 -12 0 -6 -3 -9 -6 -5 -4 3 3 22 15 42 25 44 25 43 4
48 -14 3 -11 6 10 11 15 5 27 15 27 23 0 9 6 13 15 9 8 -3 15 -1 15 4 0 17 15
11 28 -10z m-586 -30 c18 -16 43 -30 55 -30 14 0 23 -6 23 -16 0 -10 5 -14 16
-10 8 3 12 2 9 -3 -3 -5 5 -17 17 -25 12 -9 19 -18 15 -22 -10 -11 -57 5 -57
20 0 15 -42 46 -61 46 -6 0 -9 -7 -5 -15 3 -8 2 -15 -2 -15 -15 0 -32 24 -32
47 0 16 -4 21 -15 17 -17 -7 -18 -3 -9 20 8 21 7 21 46 -14z m1142 -81 c5 -4
22 -5 37 -2 25 5 29 2 29 -17 0 -16 -4 -20 -15 -16 -8 3 -26 1 -40 -4 -22 -8
-26 -6 -31 16 -5 19 -9 22 -15 12 -7 -11 -11 -10 -19 2 -5 8 -10 18 -10 23 0
9 51 -2 64 -14z m-459 -5 c31 -20 32 -38 3 -67 -14 -14 -22 -32 -20 -46 2 -15
0 -21 -7 -17 -6 4 -11 14 -11 22 0 9 -7 22 -15 30 -13 14 -15 13 -15 -2 0 -10
-3 -14 -7 -11 -3 4 -12 -1 -19 -11 -12 -16 -13 -16 -14 0 0 9 -4 19 -9 22 -5
4 -7 -2 -4 -13 3 -10 0 -22 -6 -25 -16 -10 -39 16 -33 37 4 15 11 18 34 13 19
-4 30 -1 34 8 3 7 10 13 17 13 7 0 25 4 41 8 21 6 27 5 22 -4 -4 -6 -2 -11 3
-11 16 0 13 36 -4 50 -13 11 -14 10 -10 -2 4 -10 -1 -17 -14 -21 -22 -5 -25 1
-15 27 8 20 18 20 49 0z m225 -63 c-1 -25 -1 -25 -15 -7 -19 26 -19 47 0 40 8
-4 15 -18 15 -33z m71 9 c15 -8 19 -22 19 -60 0 -28 -4 -50 -9 -50 -11 0 -71
67 -71 80 0 37 24 49 61 30z m63 -47 c9 -16 15 -21 16 -13 0 13 1 13 10 0 12
-19 13 -33 1 -26 -5 4 -12 -7 -16 -23 -5 -22 -12 -29 -27 -28 -17 1 -19 6 -14
37 3 19 6 45 6 58 0 29 6 28 24 -5z m-609 -305 c4 -13 6 -31 5 -40 -1 -10 5
-18 13 -18 12 0 13 -7 7 -35 -5 -23 -4 -36 4 -38 6 -3 3 -8 -7 -12 -10 -4 -23
-3 -29 3 -12 12 -36 133 -30 150 6 20 29 13 37 -10z m6 -162 c13 8 11 -10 -3
-25 -9 -8 -9 -11 -1 -9 6 2 11 -1 12 -7 2 -20 -11 -81 -21 -102 -22 -44 -29
-23 -22 60 7 82 14 112 22 89 2 -7 8 -10 13 -6z"/>
<path d="M1803 1190 c-28 -11 -31 -24 -4 -15 16 5 18 2 14 -15 -3 -11 -1 -20
4 -20 6 0 10 14 11 30 0 17 0 30 -1 29 -1 0 -12 -4 -24 -9z"/>
<path d="M840 1625 c0 -3 9 -14 21 -26 26 -26 39 -16 14 11 -17 19 -35 26 -35
15z"/>
<path d="M1453 1613 c-20 -16 -20 -19 -5 -43 9 -14 27 -35 41 -46 23 -20 24
-24 13 -49 -12 -25 -10 -31 14 -56 28 -29 56 -41 34 -14 -6 8 -9 19 -5 25 3 5
-1 17 -9 25 -8 9 -12 23 -9 31 5 13 7 13 14 2 7 -10 9 -8 9 6 0 10 5 16 13 13
8 -3 12 6 13 28 0 22 -4 31 -12 28 -6 -2 -18 3 -27 12 -14 14 -17 13 -32 -7
l-17 -23 5 30 c2 17 2 24 0 18 -3 -7 -9 -13 -14 -13 -6 0 -7 -4 -4 -10 3 -5 1
-10 -4 -10 -6 0 -11 9 -11 20 0 11 4 20 9 20 5 0 11 7 15 15 7 20 -5 19 -31
-2z m103 -68 c9 -23 -5 -37 -27 -25 -16 9 -17 13 -7 25 17 18 27 19 34 0z"/>
<path d="M1970 1618 c0 -11 -6 -15 -22 -11 l-23 4 22 -13 c22 -13 22 -14 4
-25 -16 -10 -20 -9 -25 13 -4 13 -11 24 -17 24 -6 0 -8 -9 -3 -22 6 -20 5 -21
-10 -9 -9 8 -16 9 -16 3 0 -6 8 -13 18 -16 10 -4 28 -15 40 -27 17 -15 26 -17
40 -10 15 9 15 10 -5 11 -13 0 -23 4 -23 9 0 15 27 20 40 8 10 -9 11 -7 5 10
-5 19 -3 22 12 16 16 -5 16 -4 3 8 -8 8 -20 21 -27 29 -11 13 -12 13 -13 -2z"/>
<path d="M2346 1613 c-10 -10 -7 -43 4 -43 6 0 10 6 10 14 0 8 5 16 12 18 8 3
6 6 -4 10 -9 4 -19 4 -22 1z"/>
<path d="M793 1583 c3 -15 1 -36 -4 -45 -12 -22 -3 -23 18 -2 9 8 21 13 27 11
6 -3 11 7 12 23 1 19 -3 27 -11 23 -7 -2 -16 0 -20 6 -13 22 -27 11 -22 -16z"/>
<path d="M2020 1603 c0 -5 7 -21 15 -37 9 -16 13 -36 11 -43 -3 -7 4 -17 14
-23 11 -6 20 -17 20 -25 0 -13 4 -13 23 -3 44 25 54 38 49 63 -4 25 -22 45
-22 26 0 -6 -7 -11 -15 -11 -8 0 -15 -5 -15 -11 0 -6 9 -8 23 -4 17 6 19 5 10
-5 -6 -7 -9 -19 -6 -27 4 -11 -1 -14 -23 -11 -22 2 -28 8 -26 22 2 10 -1 15
-6 12 -5 -3 -12 6 -15 20 -3 20 0 28 14 31 23 6 25 19 3 27 -22 8 -26 8 -19
-3 3 -5 1 -12 -5 -16 -5 -3 -10 1 -10 9 0 9 -4 16 -10 16 -5 0 -10 -3 -10 -7z"/>
<path d="M747 1571 c-21 -8 -22 -19 -1 -42 8 -9 11 -19 7 -22 -3 -4 -1 -7 5
-7 15 0 16 27 1 36 -8 5 -6 10 5 16 9 5 16 13 16 18 0 11 -7 12 -33 1z"/>
<path d="M2280 1554 c0 -8 -4 -13 -9 -10 -5 3 -15 -2 -22 -11 -12 -14 -12 -16
0 -8 9 5 18 2 26 -9 12 -15 13 -15 19 1 5 12 9 14 14 6 5 -8 13 -9 22 -3 11 7
12 10 2 10 -7 0 -10 5 -6 12 4 7 3 8 -4 4 -7 -4 -12 -3 -12 2 0 6 -7 12 -15
16 -9 3 -15 0 -15 -10z"/>
<path d="M693 1549 c-12 -12 -5 -59 10 -59 8 0 8 -3 0 -11 -16 -16 -33 -2 -33
27 0 14 -4 23 -8 20 -7 -4 -8 -17 -3 -58 1 -3 25 -6 54 -6 28 1 44 3 34 5 -11
3 -16 10 -13 19 3 8 -1 17 -10 21 -11 4 -14 13 -10 29 7 25 -3 31 -21 13z"/>
<path d="M1383 1524 c-7 -19 0 -26 21 -18 20 8 21 20 1 28 -9 3 -18 -1 -22
-10z"/>
<path d="M2000 1510 c0 -22 -4 -28 -15 -24 -9 4 -15 0 -15 -9 0 -10 7 -13 20
-10 11 3 20 13 20 22 0 12 5 10 20 -9 12 -15 20 -20 20 -11 0 8 -7 23 -17 33
-10 12 -12 18 -4 18 7 0 9 5 6 10 -13 22 -35 10 -35 -20z"/>
<path d="M1896 1518 c-9 -5 -26 -8 -37 -5 -10 3 -19 1 -19 -3 0 -14 22 -24 55
-25 16 0 29 -5 28 -11 -1 -5 8 -10 20 -11 12 0 16 1 9 4 -6 3 -10 9 -6 14 3 5
-2 9 -11 9 -11 0 -15 5 -12 15 8 19 -4 26 -27 13z"/>
<path d="M2393 1508 c-27 -13 -30 -28 -7 -28 10 0 14 -5 10 -15 -4 -13 -2 -13
14 -5 12 7 21 7 25 0 3 -5 16 -10 28 -10 30 0 8 20 -27 24 -31 3 -40 11 -31
26 5 8 11 8 21 -1 12 -10 13 -9 8 5 -7 18 -11 19 -41 4z"/>
<path d="M610 1494 c0 -14 -3 -14 -15 -4 -9 7 -18 10 -22 6 -4 -3 2 -13 13
-21 17 -13 17 -14 2 -15 -19 0 -26 -19 -27 -74 0 -22 -6 -43 -13 -48 -9 -6 -7
-8 7 -5 11 2 19 9 17 16 -2 8 4 10 18 6 24 -8 26 8 3 31 -17 17 -30 60 -15 50
9 -5 48 22 46 32 -1 4 1 6 5 5 4 -1 7 7 7 18 0 10 -6 19 -13 19 -7 0 -13 -7
-13 -16z"/>
<path d="M1418 1489 c-15 -16 -15 -18 3 -35 15 -13 19 -14 20 -3 0 8 2 22 4
31 5 25 -7 28 -27 7z"/>
<path d="M2214 1495 c-7 -16 -34 -21 -34 -6 0 5 -11 0 -24 -12 -13 -12 -22
-25 -19 -30 3 -5 14 0 26 10 18 16 20 16 14 1 -4 -11 1 -18 14 -21 15 -4 18
-2 10 7 -8 9 -7 13 4 13 8 0 15 -5 15 -11 0 -6 5 -3 11 7 6 9 15 14 21 11 6
-4 8 -2 4 4 -3 6 -2 13 4 17 6 4 8 11 4 16 -3 6 -15 0 -26 -13 l-20 -23 6 23
c8 24 -1 31 -10 7z"/>
<path d="M2327 1488 c-5 -18 -26 -21 -38 -5 -3 5 -9 1 -13 -8 -5 -13 -2 -16
12 -13 11 3 26 1 35 -3 18 -11 49 -1 41 12 -3 5 -11 6 -17 3 -8 -5 -8 -3 1 7
16 17 15 26 -2 26 -8 0 -17 -9 -19 -19z"/>
<path d="M1030 1497 c0 -4 5 -16 12 -26 9 -15 8 -22 -4 -35 -15 -14 -17 -14
-22 0 -9 22 -7 26 6 18 7 -4 8 -3 4 4 -4 6 -14 8 -22 5 -12 -4 -15 -15 -11
-43 4 -30 2 -37 -12 -36 -9 0 -19 5 -22 9 -3 5 -9 2 -12 -7 -4 -9 -2 -16 4
-16 6 0 7 -4 4 -10 -3 -5 -12 -10 -19 -10 -18 0 -17 47 0 54 8 3 14 12 14 21
0 8 7 15 15 15 8 0 15 5 15 10 0 6 -9 10 -20 10 -15 0 -20 -7 -20 -25 0 -15
-6 -25 -14 -25 -19 0 -40 -26 -26 -33 6 -3 5 -4 -2 -3 -7 1 -15 13 -16 27 -2
13 -8 29 -14 34 -8 7 -9 6 -4 -2 3 -6 0 -14 -6 -16 -9 -4 -10 -8 -2 -14 23
-18 24 -44 1 -52 l-22 -8 25 -8 c32 -11 62 -11 78 -1 7 4 22 -3 36 -19 l25
-26 11 21 c10 20 10 21 -8 16 -22 -7 -39 8 -22 19 6 4 8 11 4 16 -3 5 -1 8 4
7 12 -4 62 49 54 56 -3 3 0 6 6 6 16 0 14 31 -3 54 -8 11 -15 17 -15 13z"/>
<path d="M1722 1479 c-10 -16 -10 -20 3 -25 8 -4 15 -11 15 -18 0 -6 18 -12
41 -13 36 -2 40 -1 29 12 -7 9 -21 13 -30 10 -12 -4 -22 3 -32 24 -13 28 -15
29 -26 10z"/>
<path d="M1765 1480 c-19 -8 -18 -9 4 -9 14 -1 35 -11 48 -23 13 -12 23 -19
23 -16 0 6 -48 58 -52 57 -2 0 -12 -4 -23 -9z"/>
<path d="M803 1448 c-13 -18 -15 -68 -2 -68 5 0 7 5 4 10 -3 6 1 10 9 10 9 0
13 -6 10 -14 -5 -13 24 -31 34 -21 3 3 0 5 -6 5 -7 0 -12 8 -12 17 0 9 -8 25
-17 35 -15 17 -15 20 -3 28 8 6 10 10 4 10 -6 0 -16 -6 -21 -12z"/>
<path d="M1996 1452 c-3 -5 8 -9 25 -9 16 0 35 -6 42 -13 10 -10 6 -12 -20 -7
-20 4 -33 2 -33 -4 0 -6 5 -7 10 -4 6 3 10 1 10 -4 0 -6 -4 -11 -9 -11 -5 0
-16 -3 -25 -6 -10 -4 -16 -1 -16 8 0 11 -9 13 -32 10 l-31 -5 37 -19 c28 -14
41 -17 49 -9 6 6 20 11 32 11 19 -1 19 -1 1 -15 -17 -13 -17 -15 -2 -30 9 -9
16 -21 16 -26 0 -6 4 -8 9 -5 11 7 33 -52 25 -65 -3 -5 -13 -9 -22 -9 -15 0
-15 2 -2 10 13 8 13 10 -1 10 -20 0 -43 -26 -35 -39 4 -6 24 -1 51 13 47 26
60 24 45 -5 -14 -25 -2 -49 26 -50 13 -1 29 -2 36 -3 6 -1 13 5 16 12 2 7 0
12 -5 11 -4 -1 -20 -1 -36 0 -25 1 -26 3 -15 21 14 22 48 27 48 8 0 -9 3 -9
12 0 14 14 32 16 24 4 -3 -5 11 -14 30 -21 31 -11 37 -11 48 5 11 15 10 21 -8
41 -14 15 -31 22 -46 21 -17 -2 -25 3 -28 17 -5 22 -22 36 -35 28 -4 -2 -3
-11 3 -18 7 -8 9 -19 5 -25 -3 -5 2 -10 14 -10 11 0 23 -5 27 -12 5 -8 2 -9
-10 -5 -10 4 -25 7 -33 7 -10 0 -14 6 -10 20 3 13 0 20 -10 20 -8 0 -11 -4 -8
-10 3 -5 2 -10 -4 -10 -5 0 -12 6 -14 13 -3 6 -6 2 -6 -10 -1 -16 -6 -20 -21
-16 -11 3 -18 9 -15 13 3 5 -2 15 -10 24 -12 12 -14 20 -5 36 18 33 38 19 31
-22 0 -5 6 -8 15 -8 11 0 14 6 9 21 -5 14 -2 25 6 30 23 15 34 10 13 -5 -18
-14 -17 -14 11 -11 36 4 175 -68 175 -91 0 -7 11 -16 25 -20 27 -7 29 -12 16
-33 -12 -18 -32 -5 -25 17 5 14 3 14 -10 -2 -12 -16 -13 -22 -3 -28 20 -13 47
-9 53 7 4 8 12 15 20 15 8 0 14 5 14 10 0 7 6 7 19 1 19 -10 31 -6 31 12 0 5
-16 7 -35 5 -19 -2 -35 0 -35 4 0 4 7 8 15 8 8 0 15 5 15 11 0 11 -59 7 -79
-5 -6 -4 -11 -2 -11 4 0 6 7 13 15 16 8 4 15 10 15 16 0 5 -4 6 -10 3 -5 -3
-10 -1 -10 4 0 6 5 11 12 11 9 0 9 3 -1 13 -10 10 -16 7 -30 -12 -12 -16 -21
-20 -25 -12 -4 6 -2 11 4 11 6 0 8 5 5 10 -3 6 -22 10 -41 10 -49 0 -79 17
-63 36 14 17 -2 19 -20 2 -11 -11 -13 -10 -9 1 7 24 59 33 85 15 13 -8 23 -20
23 -27 0 -7 9 -18 20 -25 18 -11 20 -10 20 10 0 12 -3 19 -6 15 -7 -6 -54 33
-54 45 0 4 11 8 25 8 14 0 25 -4 25 -9 0 -16 33 -5 48 17 12 18 11 20 -4 18
-10 -2 -20 -8 -22 -14 -5 -16 -22 -15 -18 1 1 6 1 9 -1 5 -8 -14 -23 -9 -23 7
0 8 -4 15 -9 15 -5 0 -11 -7 -15 -15 -3 -8 -10 -15 -17 -15 -6 0 -9 7 -5 15 3
9 0 15 -10 15 -11 0 -13 -6 -9 -22 6 -16 4 -20 -8 -15 -9 3 -17 2 -19 -2 -2
-5 -13 -12 -25 -15 -19 -6 -23 -4 -23 13 0 22 -14 28 -25 11 -4 -6 -1 -17 5
-25 15 -17 6 -19 -20 -5 -16 8 -18 8 -14 -5 8 -20 -6 -19 -21 2 -11 14 -13 13
-19 -11 -8 -33 -32 -29 -27 5 4 28 17 38 40 32 19 -5 27 32 9 43 -7 5 -9 1 -5
-9 3 -10 2 -17 -3 -17 -6 0 -10 4 -10 8 0 5 -6 9 -12 9 -7 0 -27 3 -45 7 -17
4 -34 3 -37 -2z"/>
<path d="M490 1409 c-16 -17 -27 -35 -24 -40 3 -6 10 -6 17 -1 7 5 26 13 42
17 17 4 24 10 17 12 -9 4 -10 9 -2 18 8 9 7 14 -4 18 -9 4 -28 -6 -46 -24z"/>
<path d="M2431 1425 c-1 -15 -3 -17 -10 -6 -5 8 -11 9 -15 3 -3 -5 1 -15 9
-22 11 -9 18 -9 30 3 8 9 15 22 15 29 0 10 -2 10 -9 -1 -7 -11 -9 -11 -14 0
-3 9 -6 7 -6 -6z"/>
<path d="M1691 1412 c-6 -11 -8 -31 -5 -46 2 -14 1 -26 -3 -25 -45 7 -52 -15
-8 -23 24 -5 29 1 26 28 -1 6 6 17 14 24 19 16 19 34 1 49 -12 10 -17 8 -25
-7z"/>
<path d="M1857 1403 c3 -7 0 -13 -6 -13 -6 0 -8 -7 -5 -15 4 -8 1 -15 -6 -15
-7 0 -10 8 -7 20 7 28 -6 33 -39 15 -20 -10 -29 -23 -29 -40 -1 -14 3 -25 7
-25 4 0 8 9 8 19 0 27 28 34 40 11 16 -29 37 -24 45 9 3 17 14 31 23 33 11 3
8 6 -10 9 -19 4 -25 2 -21 -8z"/>
<path d="M740 1387 c0 -7 10 -18 21 -26 19 -11 21 -11 15 4 -3 9 -6 21 -6 26
0 5 -7 9 -15 9 -8 0 -15 -6 -15 -13z"/>
<path d="M2425 1370 c3 -5 12 -10 19 -10 17 0 27 -58 12 -63 -6 -3 -8 -8 -4
-12 4 -4 15 -5 24 -1 13 5 15 14 9 44 -4 20 -12 40 -18 44 -18 11 -49 10 -42
-2z"/>
<path d="M1030 1360 c0 -5 -8 -10 -17 -10 -14 0 -12 -4 7 -14 20 -10 28 -11
39 0 7 6 10 17 7 23 -9 14 -36 14 -36 1z"/>
<path d="M505 1336 c-21 -25 -45 -62 -45 -71 0 -3 7 -5 16 -5 8 0 12 5 9 10
-3 6 1 10 9 10 10 0 13 -6 10 -15 -4 -9 0 -15 9 -15 8 0 17 9 20 20 5 18 -3
25 -25 21 -12 -2 -9 17 3 25 6 3 14 2 18 -4 8 -13 71 -11 71 1 0 5 -14 6 -30
2 -23 -5 -32 -3 -36 10 -4 10 -1 21 7 26 12 7 12 9 -1 9 -8 0 -24 -11 -35 -24z"/>
<path d="M2000 1340 c0 -7 -11 -26 -25 -42 -14 -17 -23 -33 -20 -36 3 -4 17 7
30 22 14 16 25 24 25 18 0 -6 -4 -14 -10 -17 -5 -3 -10 -11 -10 -16 0 -17 18
0 34 32 14 28 14 30 0 25 -8 -3 -12 -2 -9 3 3 5 1 12 -5 16 -5 3 -10 1 -10 -5z"/>
<path d="M799 1333 c-1 -5 -2 -21 -3 -38 -1 -27 -4 -30 -31 -29 -16 0 -37 -6
-45 -15 -13 -13 -11 -14 23 -8 25 4 37 2 37 -6 0 -8 3 -7 9 2 5 7 15 11 22 8
9 -3 -1 -11 -25 -22 -21 -9 -46 -13 -55 -10 -14 5 -14 4 -1 -9 17 -17 85 -32
75 -16 -10 16 37 70 62 70 13 0 23 -4 23 -10 0 -5 5 -10 11 -10 5 0 7 5 4 10
-3 6 -1 10 6 10 8 0 8 4 -1 15 -7 8 -9 15 -4 15 14 0 -19 20 -33 20 -7 0 -13
-6 -13 -14 0 -8 6 -17 13 -20 6 -3 3 -5 -8 -3 -11 1 -26 -2 -34 -7 -11 -7 -13
-5 -9 10 3 11 -2 26 -9 33 -13 11 -13 15 -1 22 10 6 10 9 1 9 -7 0 -14 -3 -14
-7z"/>
<path d="M730 1320 c0 -5 5 -10 11 -10 8 0 7 -6 -2 -17 -10 -11 -10 -14 -1 -9
6 4 12 2 12 -3 0 -6 3 -11 8 -11 4 0 7 11 7 24 0 13 -3 22 -7 19 -5 -2 -8 1
-8 6 0 6 -4 11 -10 11 -5 0 -10 -4 -10 -10z"/>
<path d="M675 1311 c3 -5 1 -12 -5 -16 -11 -7 -4 -25 10 -25 5 0 7 7 4 15 -4
10 0 15 11 15 9 0 13 5 10 10 -3 6 -13 10 -21 10 -8 0 -13 -4 -9 -9z"/>
<path d="M1678 1286 c-22 -16 -22 -22 -4 -29 10 -4 13 -1 10 7 -3 7 2 13 10
13 8 0 13 -4 11 -8 -7 -11 27 -21 37 -11 10 10 -17 42 -35 42 -7 0 -20 -7 -29
-14z"/>
<path d="M1910 1290 c13 -8 13 -11 0 -22 -8 -7 -14 -12 -12 -11 2 1 16 -3 31
-8 21 -8 24 -8 14 2 -7 7 -13 21 -13 31 0 11 -7 18 -17 18 -15 0 -16 -2 -3
-10z"/>
<path d="M700 1272 c0 -5 -10 -18 -21 -31 -17 -18 -19 -25 -9 -34 10 -9 11 -9
6 1 -4 6 -3 12 3 12 5 0 16 14 25 30 8 17 10 30 5 30 -5 0 -9 -4 -9 -8z"/>
<path d="M1182 1238 c5 -15 58 -21 58 -7 0 5 -3 9 -7 10 -5 0 -19 2 -31 5 -16
3 -22 0 -20 -8z"/>
<path d="M906 1219 c3 -5 -3 -10 -13 -11 -33 -2 -38 -4 -58 -16 -23 -13 -22
-13 23 -17 22 -2 35 2 39 12 3 8 12 12 19 9 8 -3 14 -1 14 4 0 6 1 13 3 17 1
3 -6 7 -16 9 -9 1 -15 -2 -11 -7z"/>
<path d="M1273 1204 c-27 -30 -28 -34 -8 -34 8 0 15 7 15 15 0 9 7 18 15 21 8
4 15 10 15 15 0 16 -14 9 -37 -17z"/>
<path d="M2546 1211 c-14 -5 -16 -10 -8 -15 7 -4 18 -4 25 -1 6 4 4 0 -5 -8
-10 -8 -15 -17 -12 -20 4 -3 -1 -13 -10 -22 -19 -19 -43 -10 -26 10 6 7 7 20
4 29 -5 13 -9 14 -21 4 -13 -10 -13 -13 4 -20 12 -6 8 -6 -12 -3 -66 12 -75
13 -75 4 0 -6 -7 -9 -16 -7 -17 3 -20 -4 -30 -82 -4 -37 -3 -42 6 -27 7 10 9
21 6 24 -10 10 14 43 32 43 14 0 15 2 2 10 -8 5 -11 12 -7 17 4 4 18 1 30 -6
20 -13 21 -13 8 3 -12 14 -11 16 10 12 13 -3 27 -5 32 -5 11 -1 8 -41 -3 -41
-5 0 -10 6 -10 13 0 9 -3 8 -9 -2 -5 -7 -13 -11 -18 -8 -6 4 -19 0 -29 -8 -10
-8 -14 -15 -8 -15 5 0 14 4 20 10 6 6 19 4 38 -5 37 -19 44 -19 42 2 0 10 5
18 12 19 6 1 17 2 23 3 5 0 8 5 5 10 -8 12 18 21 43 14 12 -3 21 -1 21 6 0 6
-9 11 -20 11 -24 0 -25 6 -4 27 13 14 17 14 26 2 7 -11 11 -11 15 -1 2 6 9 10
14 6 5 -3 9 0 9 6 0 17 -31 24 -50 12 -10 -6 -21 -7 -26 -2 -5 4 -18 5 -28 1z"/>
<path d="M236 1173 c-9 -22 -8 -23 15 -23 17 0 19 -3 10 -14 -8 -10 -8 -16 2
-24 20 -17 38 5 27 33 -5 13 -7 25 -4 28 3 2 -6 7 -20 9 -16 3 -27 0 -30 -9z"/>
<path d="M1971 1166 c-18 -10 -20 -15 -10 -19 11 -4 12 -7 1 -15 -9 -6 -4 -9
17 -10 17 0 31 4 31 10 0 5 -7 8 -15 4 -8 -3 -15 -1 -15 5 0 5 7 12 15 15 15
6 21 24 8 24 -5 -1 -19 -7 -32 -14z"/>
<path d="M2250 1166 c0 -8 -3 -22 -7 -31 -5 -15 -3 -16 14 -7 15 8 23 8 33 -1
10 -10 12 -8 7 6 -8 20 -3 22 12 4 8 -11 6 -20 -10 -38 l-21 -24 22 -3 c13 -2
20 -9 16 -17 -2 -7 1 -16 9 -18 25 -10 25 6 -1 30 l-25 23 28 0 c15 0 23 4 17
8 -6 4 -10 15 -8 25 1 11 -7 22 -23 30 -22 10 -23 12 -6 18 13 5 7 8 -19 8
-27 1 -38 -3 -38 -13z"/>
<path d="M2100 1159 c0 -5 3 -8 8 -5 4 2 16 -2 27 -10 18 -13 18 -14 -6 -15
-17 -1 -19 -3 -6 -6 9 -2 17 -9 17 -16 0 -6 6 -3 13 7 12 16 14 16 26 2 13
-16 31 -13 31 4 0 5 -7 7 -15 4 -8 -4 -15 -2 -15 4 0 5 -15 17 -34 26 -40 19
-46 20 -46 5z"/>
<path d="M2625 1150 c-3 -5 -4 -14 0 -20 8 -13 35 -1 35 16 0 16 -26 19 -35 4z"/>
<path d="M456 1143 c-3 -3 -1 -12 5 -20 12 -13 2 -18 -30 -14 -7 2 -10 -2 -7
-8 4 -5 2 -12 -4 -16 -5 -3 -10 -1 -10 4 0 6 -8 11 -17 10 -11 0 -13 -3 -5 -6
6 -2 10 -9 7 -13 -3 -5 -12 -7 -20 -3 -11 4 -15 -3 -15 -25 0 -24 7 -34 31
-46 17 -9 36 -13 42 -9 5 3 -3 12 -19 20 -16 7 -21 11 -12 9 10 -3 20 -1 23 4
5 9 -24 15 -48 11 -5 -1 -5 3 -2 9 4 6 14 9 21 6 17 -6 84 50 84 70 0 15 -15
26 -24 17z"/>
<path d="M2562 1135 c4 -4 0 -14 -10 -21 -26 -19 -7 -28 27 -13 30 13 41 29
22 29 -5 0 -18 3 -28 7 -10 3 -15 3 -11 -2z"/>
<path d="M491 1107 c-5 -13 -16 -29 -24 -36 -12 -9 -16 -44 -8 -68 1 -1 14 3
30 8 22 8 28 15 24 30 -5 19 -6 19 -25 2 -19 -17 -20 -17 -17 7 2 13 13 29 25
35 11 6 19 17 16 25 -4 12 -2 13 9 3 7 -7 21 -13 32 -13 17 0 17 -1 3 -16 -18
-17 -21 -34 -7 -34 5 0 14 7 21 15 7 8 20 15 29 15 13 1 11 5 -7 20 -13 10
-30 16 -37 13 -8 -3 -15 -1 -15 4 0 20 -41 11 -49 -10z"/>
<path d="M2073 1103 c-3 -10 -8 -22 -11 -27 -3 -5 5 -7 16 -4 12 4 20 2 16 -3
-3 -5 -1 -9 3 -9 11 0 36 41 29 48 -3 3 -6 0 -6 -6 0 -7 -4 -12 -10 -12 -5 0
-10 7 -10 15 0 21 -19 19 -27 -2z"/>
<path d="M777 1080 c-29 -18 -63 -70 -46 -70 5 0 9 5 9 11 0 5 4 7 10 4 6 -3
7 1 4 9 -3 9 -1 16 5 16 11 0 14 -10 12 -45 0 -11 2 -15 5 -8 4 8 13 9 29 3
18 -7 25 -5 29 7 5 12 1 14 -19 11 -14 -3 -25 -1 -25 3 0 5 4 9 9 9 15 0 22
33 9 42 -10 6 -10 10 2 18 8 5 11 9 5 9 -5 0 -23 -9 -38 -19z"/>
<path d="M893 1093 c-7 -3 -13 -13 -13 -24 0 -10 -4 -19 -10 -19 -5 0 -10 4
-10 10 0 5 -7 7 -15 4 -20 -8 -19 -24 1 -24 10 0 14 -6 10 -15 -3 -9 0 -15 9
-15 10 0 15 -10 14 -27 0 -24 -2 -25 -8 -9 -7 18 -8 18 -14 2 -4 -10 -1 -19 8
-22 17 -7 36 3 34 19 -3 26 2 37 17 37 14 0 15 -2 3 -17 -12 -15 -12 -16 3
-10 11 4 22 -1 32 -14 14 -20 14 -20 21 11 7 33 -7 62 -20 41 -4 -8 -11 -6
-21 4 -18 18 -35 20 -31 4 1 -6 -4 -14 -10 -16 -15 -6 -17 23 -3 32 6 4 8 11
5 16 -10 15 7 10 70 -21 33 -16 61 -27 64 -25 2 2 -8 10 -23 16 -19 9 -26 20
-26 41 0 20 -5 28 -17 27 -12 0 -13 -2 -5 -6 10 -4 10 -8 1 -19 -13 -16 -34
-19 -24 -5 7 12 -25 30 -42 24z"/>
<path d="M2204 1065 c0 -28 11 -33 20 -10 3 8 15 15 26 15 33 0 22 15 -13 17
-29 2 -33 0 -33 -22z"/>
<path d="M645 1058 c11 -37 35 -68 58 -78 19 -8 19 -9 3 -9 -15 -1 -16 -4 -6
-15 6 -8 18 -12 26 -9 8 3 14 0 14 -6 0 -16 16 -14 34 4 8 8 19 15 25 15 6 0
11 7 11 15 0 22 -25 18 -44 -7 -16 -23 -16 -23 -6 -1 7 14 7 24 0 28 -5 3 -10
1 -10 -5 0 -6 -18 0 -39 12 -22 12 -38 25 -36 28 5 10 -14 50 -25 50 -7 0 -9
-9 -5 -22z"/>
<path d="M680 1050 c0 -5 4 -10 9 -10 5 0 16 -3 25 -6 11 -4 16 -1 16 10 0 10
-9 16 -25 16 -14 0 -25 -4 -25 -10z"/>
<path d="M2200 1006 c0 -16 29 -55 35 -47 3 6 3 16 0 21 -3 6 -1 10 4 10 6 0
11 5 11 12 0 9 -3 9 -12 0 -15 -15 -32 -16 -23 -2 3 6 1 10 -4 10 -6 0 -11 -2
-11 -4z"/>
<path d="M2485 990 c-3 -5 1 -10 9 -10 8 0 18 -10 21 -21 6 -17 9 -19 16 -8 5
9 1 20 -11 31 -22 21 -27 22 -35 8z"/>
<path d="M432 969 c1 -13 8 -23 13 -21 15 3 12 35 -3 40 -9 3 -13 -3 -10 -19z"/>
<path d="M1412 970 c-16 -26 -15 -33 3 -27 8 4 17 2 21 -4 4 -6 11 -6 20 2 13
10 12 14 -2 30 -21 24 -26 24 -42 -1z"/>
<path d="M2464 952 c-4 -12 -10 -20 -14 -17 -5 3 -7 -3 -5 -12 2 -10 4 -22 4
-27 1 -5 8 -3 16 4 8 7 12 17 9 22 -4 6 0 14 7 19 11 7 11 11 1 21 -10 10 -14
8 -18 -10z"/>
<path d="M2644 933 c-4 -10 -8 -25 -8 -33 -1 -19 -63 -22 -91 -3 -11 7 -26 13
-35 13 -29 -1 34 -40 65 -40 17 0 42 -7 57 -14 33 -18 43 -7 26 29 -10 23 -10
29 5 40 21 15 22 25 3 25 -8 0 -17 -8 -22 -17z"/>
<path d="M2756 929 c-15 -9 -16 -13 -5 -20 10 -6 4 -9 -18 -9 -39 0 -58 -26
-36 -48 12 -12 12 -16 1 -23 -7 -5 -21 -6 -30 -3 -10 3 -18 0 -18 -7 0 -7 -10
-10 -28 -6 -19 4 -29 2 -29 -6 0 -7 11 -13 25 -14 13 0 29 -6 36 -13 8 -9 4
-11 -21 -5 -35 7 -47 -8 -15 -19 9 -3 22 -8 28 -11 14 -7 26 33 13 41 -15 9
-10 24 9 22 41 -3 52 2 52 27 0 14 -4 25 -10 25 -16 0 -12 17 6 24 12 4 15 2
11 -9 -6 -15 17 -45 34 -45 14 0 11 11 -8 27 -16 13 -16 14 -2 10 18 -6 59 18
59 34 0 5 -7 9 -15 9 -9 0 -12 6 -9 15 7 18 -3 19 -30 4z"/>
<path d="M1000 920 c-16 -10 -13 -11 20 -13 11 -1 20 3 21 8 0 14 -23 17 -41
5z"/>
<path d="M2495 810 c-3 -5 -1 -10 4 -10 6 0 11 -8 11 -17 0 -11 3 -14 8 -8 4
6 19 10 35 10 15 -1 26 4 24 10 -3 5 -14 9 -27 7 -12 -1 -28 3 -35 8 -9 8 -15
8 -20 0z"/>
<path d="M1820 800 c0 -5 9 -19 20 -30 11 -11 20 -27 20 -36 0 -8 4 -13 9 -9
5 3 12 -3 15 -12 3 -10 4 -6 2 9 -3 24 -1 26 16 17 11 -6 22 -8 25 -5 10 9 -7
25 -36 31 -15 3 -38 15 -50 26 -11 11 -21 15 -21 9z"/>
<path d="M2700 793 c-29 -11 -40 -43 -15 -43 8 0 14 6 13 12 -2 7 7 14 20 16
12 2 22 8 22 13 0 10 -16 11 -40 2z"/>
<path d="M2396 773 c-7 -18 13 -27 29 -13 8 7 15 15 15 19 0 12 -39 7 -44 -6z"/>
<path d="M2223 760 c3 -13 0 -20 -9 -20 -8 0 -14 7 -14 16 0 11 -5 14 -16 10
-9 -3 -18 -6 -20 -6 -2 0 -4 -10 -4 -21 0 -17 3 -19 13 -10 10 7 17 7 24 0 17
-17 52 6 46 31 -3 11 -10 20 -15 20 -6 0 -8 -9 -5 -20z"/>
<path d="M2497 757 c18 -25 48 -25 57 -1 6 17 1 17 -25 4 -15 -9 -21 -7 -25 5
-3 8 -10 15 -16 15 -5 0 -1 -11 9 -23z"/>
<path d="M2350 760 c-8 -5 -11 -10 -5 -10 5 0 4 -5 -2 -11 -14 -14 -4 -59 13
-59 16 0 16 6 5 35 -5 11 -4 28 1 38 10 20 9 20 -12 7z"/>
<path d="M1520 749 c0 -4 -7 -6 -15 -3 -10 4 -15 0 -15 -15 0 -12 -4 -21 -10
-21 -5 0 -10 -13 -10 -28 0 -15 -5 -33 -11 -39 -7 -7 -5 -12 8 -15 13 -4 19 0
19 11 1 64 4 73 24 68 12 -3 27 2 37 11 12 12 18 13 21 4 2 -7 8 -10 13 -6 5
3 4 11 -3 18 -16 16 -58 27 -58 15z"/>
<path d="M2440 754 c0 -17 15 -31 38 -38 23 -8 28 0 12 24 -5 8 -12 11 -16 7
-4 -4 -13 -2 -21 4 -7 6 -13 8 -13 3z"/>
<path d="M1821 733 c1 -21 17 -63 18 -48 1 6 6 3 11 -5 16 -24 11 4 -6 38 -17
36 -24 40 -23 15z"/>
<path d="M2215 692 c2 -9 4 -23 4 -29 1 -7 6 -13 11 -13 15 0 12 47 -4 53 -9
4 -13 0 -11 -11z"/>
<path d="M2260 695 c0 -8 0 -18 -1 -22 0 -4 5 -9 12 -12 8 -2 10 3 7 17 -3 12
-1 23 6 26 6 2 3 5 -6 5 -10 1 -18 -6 -18 -14z"/>
<path d="M2155 660 c-8 -13 -6 -16 22 -24 18 -6 43 9 32 18 -13 12 -48 15 -54
6z"/>
<path d="M2095 620 c-3 -5 -4 -14 0 -20 8 -13 35 -1 35 16 0 16 -26 19 -35 4z"/>
</g>
</svg>
