<?xml version="1.0" standalone="no"?>
<!DOCTYPE svg PUBLIC "-//W3C//DTD SVG 20010904//EN"
 "http://www.w3.org/TR/2001/REC-SVG-20010904/DTD/svg10.dtd">
<svg version="1.0" xmlns="http://www.w3.org/2000/svg"
 width="225.000000pt" height="225.000000pt" viewBox="0 0 225.000000 225.000000"
 preserveAspectRatio="xMidYMid meet">
<metadata>
Created by potrace 1.16, written by Peter Selinger 2001-2019
</metadata>
<g transform="translate(0.000000,225.000000) scale(0.100000,-0.100000)"
fill="#000000" stroke="none">
<path d="M950 2173 c-207 -36 -412 -175 -526 -359 -83 -133 -134 -333 -118
-462 30 -258 268 -678 653 -1156 53 -65 103 -127 112 -138 15 -20 17 -18 73
45 240 271 489 630 607 875 84 174 112 269 117 403 5 144 -16 241 -85 379 -40
80 -62 110 -143 190 -80 81 -110 103 -190 143 -131 65 -225 87 -364 86 -61 -1
-122 -4 -136 -6z m347 -477 c68 -32 138 -103 171 -174 24 -50 27 -69 27 -162
0 -93 -3 -112 -27 -162 -34 -72 -93 -137 -160 -173 -45 -25 -64 -29 -128 -29
-80 -1 -135 19 -175 64 l-20 22 -5 -163 -5 -164 -102 -3 -103 -3 0 481 0 480
105 0 105 0 0 -30 c0 -36 2 -36 39 -9 73 54 192 65 278 25z"/>
<path d="M1074 1536 c-65 -29 -112 -133 -98 -214 28 -160 194 -205 288 -79 31
42 35 160 7 215 -38 75 -126 110 -197 78z"/>
</g>
</svg>
